<svg width="43" height="47" viewBox="0 0 43 47" fill="none" xmlns="http://www.w3.org/2000/svg">
<path d="M40.9841 35.0399L21.7771 45.8445V23.0252L40.9841 13.4217V35.0399Z" fill="#2FD6C9" stroke="black" stroke-width="0.448658"/>
<path d="M41.2082 13.0593L21.5525 22.8871L1.89685 13.0593L21.5525 2.00299L41.2082 13.0593Z" fill="#3B3C9C"/>
<path d="M21.2461 0.750916C21.4749 0.658834 21.7358 0.674216 21.9541 0.796814L41.6094 11.8535C41.8675 11.9986 42.0273 12.2722 42.0273 12.5683V34.6806C42.0273 34.9768 41.8676 35.2502 41.6094 35.3954L21.9541 46.4511C21.7045 46.5914 21.3999 46.5915 21.1504 46.4511L11.3223 40.9238L1.49414 35.3954C1.23629 35.2501 1.07617 34.9766 1.07617 34.6806V12.5683C1.07625 12.2724 1.23633 11.9987 1.49414 11.8535L21.1504 0.796814L21.2461 0.750916ZM2.7168 34.2001L12.126 39.4941L20.7324 44.3349V22.9023L2.7168 13.8945V34.2001ZM32.2002 17.9882V28.538C32.2002 28.9909 31.8327 29.3583 31.3799 29.3583C30.9273 29.3581 30.5605 28.9907 30.5605 28.538V18.8076L22.3721 22.9023V44.3349L40.3877 34.2001V13.8945L32.2002 17.9882ZM3.64355 12.5253L21.5518 21.4785L29.5469 17.4814L21.1855 13.3017C20.7808 13.0991 20.6159 12.606 20.8184 12.2011C21.0208 11.7962 21.514 11.6327 21.9189 11.8349L31.3789 16.5644L39.46 12.5244L21.5518 2.45209L3.64355 12.5253Z" fill="#2E2E2E"/>
<path d="M21.2461 0.750916L21.1623 0.542809C21.1579 0.544611 21.1534 0.546558 21.1491 0.548645L21.2461 0.750916ZM21.9541 0.796814L22.0641 0.601296L22.0639 0.601218L21.9541 0.796814ZM41.6094 11.8535L41.4994 12.049L41.4994 12.049L41.6094 11.8535ZM42.0273 12.5683L42.2517 12.5683L42.2517 12.5682L42.0273 12.5683ZM41.6094 35.3954L41.7194 35.591L41.7194 35.591L41.6094 35.3954ZM21.9541 46.4511L22.064 46.6467L22.0641 46.6466L21.9541 46.4511ZM21.1504 46.4511L21.2604 46.2556L21.2604 46.2556L21.1504 46.4511ZM11.3223 40.9238L11.2123 41.1193L11.2123 41.1193L11.3223 40.9238ZM1.49414 35.3954L1.38401 35.5909L1.38416 35.591L1.49414 35.3954ZM1.07617 12.5683L0.851843 12.5682V12.5683H1.07617ZM1.49414 11.8535L1.38416 11.6579L1.38402 11.658L1.49414 11.8535ZM21.1504 0.796814L21.0534 0.594544C21.049 0.596652 21.0447 0.598904 21.0404 0.601294L21.1504 0.796814ZM2.7168 34.2001H2.49247C2.49247 34.2812 2.53617 34.3559 2.6068 34.3956L2.7168 34.2001ZM12.126 39.4941L12.016 39.6896L12.016 39.6896L12.126 39.4941ZM20.7324 44.3349L20.6224 44.5304C20.6919 44.5695 20.7769 44.5688 20.8457 44.5285C20.9145 44.4883 20.9568 44.4146 20.9568 44.3349H20.7324ZM20.7324 22.9023H20.9568C20.9568 22.8173 20.9087 22.7396 20.8327 22.7016L20.7324 22.9023ZM2.7168 13.8945L2.81712 13.6938C2.74758 13.6591 2.665 13.6628 2.59886 13.7036C2.53272 13.7445 2.49247 13.8167 2.49247 13.8945H2.7168ZM32.2002 17.9882L32.0999 17.7876C32.0239 17.8256 31.9759 17.9033 31.9759 17.9882H32.2002ZM31.3799 29.3583L31.3798 29.5827H31.3799V29.3583ZM30.5605 18.8076H30.7849C30.7849 18.7298 30.7446 18.6576 30.6785 18.6167C30.6123 18.5759 30.5298 18.5721 30.4602 18.6069L30.5605 18.8076ZM22.3721 22.9023L22.2717 22.7016C22.1957 22.7396 22.1477 22.8173 22.1477 22.9023H22.3721ZM22.3721 44.3349H22.1477C22.1477 44.4146 22.19 44.4883 22.2588 44.5285C22.3276 44.5688 22.4126 44.5695 22.4821 44.5304L22.3721 44.3349ZM40.3877 34.2001L40.4977 34.3956C40.5683 34.3559 40.612 34.2812 40.612 34.2001H40.3877ZM40.3877 13.8945H40.612C40.612 13.8167 40.5718 13.7445 40.5056 13.7036C40.4395 13.6628 40.3569 13.6591 40.2874 13.6938L40.3877 13.8945ZM3.64355 12.5253L3.53358 12.3298C3.46123 12.3705 3.41727 12.4478 3.41929 12.5308C3.42132 12.6138 3.469 12.6889 3.54324 12.726L3.64355 12.5253ZM21.5518 21.4785L21.4514 21.6791C21.5146 21.7107 21.5889 21.7107 21.6521 21.6791L21.5518 21.4785ZM29.5469 17.4814L29.6472 17.682C29.7232 17.644 29.7712 17.5664 29.7712 17.4814C29.7712 17.3964 29.7232 17.3187 29.6472 17.2807L29.5469 17.4814ZM21.1855 13.3017L21.0851 13.5023L21.0852 13.5024L21.1855 13.3017ZM20.8184 12.2011L20.6177 12.1008L20.6177 12.1008L20.8184 12.2011ZM21.9189 11.8349L22.0193 11.6342L22.0192 11.6342L21.9189 11.8349ZM31.3789 16.5644L31.2786 16.765C31.3417 16.7966 31.4161 16.7966 31.4792 16.765L31.3789 16.5644ZM39.46 12.5244L39.5603 12.725C39.6345 12.6879 39.6822 12.6128 39.6842 12.5298C39.6862 12.4468 39.6423 12.3695 39.5699 12.3288L39.46 12.5244ZM21.5518 2.45209L21.6617 2.25656C21.5934 2.21816 21.5101 2.21816 21.4418 2.25657L21.5518 2.45209ZM21.2461 0.750916L21.3298 0.959022C21.496 0.892164 21.6856 0.903336 21.8443 0.99241L21.9541 0.796814L22.0639 0.601218C21.7859 0.445095 21.4538 0.425504 21.1623 0.542809L21.2461 0.750916ZM21.9541 0.796814L21.8441 0.992331L41.4994 12.049L41.6094 11.8535L41.7194 11.6579L22.0641 0.601296L21.9541 0.796814ZM41.6094 11.8535L41.4994 12.049C41.6868 12.1544 41.803 12.3531 41.803 12.5684L42.0273 12.5683L42.2517 12.5682C42.2516 12.1912 42.0482 11.8429 41.7194 11.6579L41.6094 11.8535ZM42.0273 12.5683H41.803V34.6806H42.0273H42.2517V12.5683H42.0273ZM42.0273 34.6806H41.803C41.803 34.8958 41.6869 35.0945 41.4994 35.1999L41.6094 35.3954L41.7194 35.591C42.0482 35.406 42.2517 35.0578 42.2517 34.6806H42.0273ZM41.6094 35.3954L41.4994 35.1999L21.8441 46.2556L21.9541 46.4511L22.0641 46.6466L41.7194 35.591L41.6094 35.3954ZM21.9541 46.4511L21.8442 46.2556C21.6628 46.3575 21.4416 46.3575 21.2604 46.2556L21.1504 46.4511L21.0404 46.6466C21.3583 46.8254 21.7462 46.8253 22.064 46.6467L21.9541 46.4511ZM21.1504 46.4511L21.2604 46.2556L11.4322 40.7282L11.3223 40.9238L11.2123 41.1193L21.0404 46.6466L21.1504 46.4511ZM11.3223 40.9238L11.4322 40.7282L1.60412 35.1999L1.49414 35.3954L1.38416 35.591L11.2123 41.1193L11.3223 40.9238ZM1.49414 35.3954L1.60428 35.2C1.41685 35.0944 1.3005 34.8955 1.3005 34.6806H1.07617H0.851843C0.851843 35.0577 1.05574 35.4059 1.38401 35.5909L1.49414 35.3954ZM1.07617 34.6806H1.3005V12.5683H1.07617H0.851843V34.6806H1.07617ZM1.07617 12.5683L1.3005 12.5684C1.30056 12.3534 1.41693 12.1544 1.60426 12.0489L1.49414 11.8535L1.38402 11.658C1.05572 11.843 0.851945 12.1913 0.851843 12.5682L1.07617 12.5683ZM1.49414 11.8535L1.60412 12.049L21.2604 0.992334L21.1504 0.796814L21.0404 0.601294L1.38416 11.6579L1.49414 11.8535ZM21.1504 0.796814L21.2474 0.999084L21.3431 0.953186L21.2461 0.750916L21.1491 0.548645L21.0534 0.594544L21.1504 0.796814ZM2.7168 34.2001L2.6068 34.3956L12.016 39.6896L12.126 39.4941L12.236 39.2986L2.8268 34.0046L2.7168 34.2001ZM12.126 39.4941L12.016 39.6896L20.6224 44.5304L20.7324 44.3349L20.8424 44.1394L12.236 39.2986L12.126 39.4941ZM20.7324 44.3349H20.9568V22.9023H20.7324H20.5081V44.3349H20.7324ZM20.7324 22.9023L20.8327 22.7016L2.81712 13.6938L2.7168 13.8945L2.61647 14.0951L20.6321 23.1029L20.7324 22.9023ZM2.7168 13.8945H2.49247V34.2001H2.7168H2.94113V13.8945H2.7168ZM32.2002 17.9882H31.9759V28.538H32.2002H32.4245V17.9882H32.2002ZM32.2002 28.538H31.9759C31.9759 28.867 31.7088 29.134 31.3799 29.134V29.3583V29.5827C31.9566 29.5827 32.4245 29.1148 32.4245 28.538H32.2002ZM31.3799 29.3583L31.38 29.134C31.0514 29.1338 30.7849 28.867 30.7849 28.538H30.5605H30.3362C30.3362 29.1144 30.8031 29.5823 31.3798 29.5827L31.3799 29.3583ZM30.5605 28.538H30.7849V18.8076H30.5605H30.3362V28.538H30.5605ZM30.5605 18.8076L30.4602 18.6069L22.2717 22.7016L22.3721 22.9023L22.4724 23.1029L30.6609 19.0082L30.5605 18.8076ZM22.3721 22.9023H22.1477V44.3349H22.3721H22.5964V22.9023H22.3721ZM22.3721 44.3349L22.4821 44.5304L40.4977 34.3956L40.3877 34.2001L40.2777 34.0046L22.2621 44.1394L22.3721 44.3349ZM40.3877 34.2001H40.612V13.8945H40.3877H40.1634V34.2001H40.3877ZM40.3877 13.8945L40.2874 13.6938L32.0999 17.7876L32.2002 17.9882L32.3005 18.1889L40.488 14.0951L40.3877 13.8945ZM3.64355 12.5253L3.54324 12.726L21.4514 21.6791L21.5518 21.4785L21.6521 21.2778L3.74387 12.3247L3.64355 12.5253ZM21.5518 21.4785L21.6521 21.6791L29.6472 17.682L29.5469 17.4814L29.4466 17.2807L21.4514 21.2778L21.5518 21.4785ZM29.5469 17.4814L29.6472 17.2807L21.2859 13.101L21.1855 13.3017L21.0852 13.5024L29.4466 17.682L29.5469 17.4814ZM21.1855 13.3017L21.286 13.1011C20.9917 12.9538 20.8721 12.5953 21.019 12.3014L20.8184 12.2011L20.6177 12.1008C20.3598 12.6167 20.5699 13.2444 21.0851 13.5023L21.1855 13.3017ZM20.8184 12.2011L21.019 12.3014C21.1659 12.0077 21.5242 11.8885 21.8187 12.0356L21.9189 11.8349L22.0192 11.6342C21.5038 11.3769 20.8758 11.5847 20.6177 12.1008L20.8184 12.2011ZM21.9189 11.8349L21.8186 12.0356L31.2786 16.765L31.3789 16.5644L31.4792 16.3637L22.0193 11.6342L21.9189 11.8349ZM31.3789 16.5644L31.4792 16.765L39.5603 12.725L39.46 12.5244L39.3596 12.3237L31.2786 16.3637L31.3789 16.5644ZM39.46 12.5244L39.5699 12.3288L21.6617 2.25656L21.5518 2.45209L21.4418 2.64761L39.35 12.7199L39.46 12.5244ZM21.5518 2.45209L21.4418 2.25657L3.53358 12.3298L3.64355 12.5253L3.75353 12.7208L21.6617 2.64761L21.5518 2.45209Z" fill="black"/>
<mask id="path-5-outside-1_64_364" maskUnits="userSpaceOnUse" x="22.0267" y="34.2819" width="7" height="7" fill="black">
<rect fill="white" x="22.0267" y="34.2819" width="7" height="7"/>
<path d="M27.5912 35.2819C27.7545 35.2819 27.9007 35.2927 28.0297 35.3141C27.8965 36.3024 27.7906 37.1981 27.7133 38.0016C27.6404 38.799 27.5999 39.2205 27.5912 39.2653C27.5869 39.3082 27.5844 39.3472 27.5844 39.3815C27.5886 39.4931 27.6426 39.5494 27.7455 39.5495C28.0033 39.5495 28.3628 39.2529 28.8226 38.6599C28.9042 38.8875 28.9513 39.0405 28.9642 39.1179C28.758 39.4443 28.5083 39.713 28.2162 39.9235C27.9284 40.1296 27.6556 40.2331 27.3978 40.2331C27.14 40.2331 26.9615 40.1661 26.8627 40.0329C26.7638 39.8997 26.7142 39.7509 26.7142 39.5876C26.7143 39.5488 26.7184 39.4733 26.7269 39.362C26.7399 39.2493 26.8259 38.5527 26.9847 37.2731L25.9281 39.7165H25.3802L25.0638 37.3122L24.6127 39.3112C24.5396 39.629 24.4189 39.863 24.2513 40.0134C24.0881 40.1637 23.9079 40.2389 23.7103 40.239C23.5127 40.239 23.3515 40.1811 23.2269 40.0651C23.0938 39.9406 23.0268 39.7644 23.0267 39.5368C23.0267 39.0812 23.3795 38.6922 24.0844 38.3698C24.4669 36.5346 24.6724 35.5177 24.7025 35.32C24.8057 35.2942 24.9437 35.2819 25.1156 35.2819C25.2918 35.2819 25.4125 35.286 25.4769 35.2946H25.5219L25.9213 38.2927L27.2103 35.3649V35.3327C27.3006 35.2983 27.4279 35.2819 27.5912 35.2819ZM23.974 38.8981C23.6478 39.0827 23.485 39.259 23.4847 39.4265C23.4847 39.564 23.5384 39.6335 23.6459 39.6335C23.7189 39.6334 23.7793 39.5746 23.8265 39.4587C23.8866 39.3169 23.9354 39.13 23.974 38.8981Z"/>
</mask>
<path d="M27.5912 35.2819C27.7545 35.2819 27.9007 35.2927 28.0297 35.3141C27.8965 36.3024 27.7906 37.1981 27.7133 38.0016C27.6404 38.799 27.5999 39.2205 27.5912 39.2653C27.5869 39.3082 27.5844 39.3472 27.5844 39.3815C27.5886 39.4931 27.6426 39.5494 27.7455 39.5495C28.0033 39.5495 28.3628 39.2529 28.8226 38.6599C28.9042 38.8875 28.9513 39.0405 28.9642 39.1179C28.758 39.4443 28.5083 39.713 28.2162 39.9235C27.9284 40.1296 27.6556 40.2331 27.3978 40.2331C27.14 40.2331 26.9615 40.1661 26.8627 40.0329C26.7638 39.8997 26.7142 39.7509 26.7142 39.5876C26.7143 39.5488 26.7184 39.4733 26.7269 39.362C26.7399 39.2493 26.8259 38.5527 26.9847 37.2731L25.9281 39.7165H25.3802L25.0638 37.3122L24.6127 39.3112C24.5396 39.629 24.4189 39.863 24.2513 40.0134C24.0881 40.1637 23.9079 40.2389 23.7103 40.239C23.5127 40.239 23.3515 40.1811 23.2269 40.0651C23.0938 39.9406 23.0268 39.7644 23.0267 39.5368C23.0267 39.0812 23.3795 38.6922 24.0844 38.3698C24.4669 36.5346 24.6724 35.5177 24.7025 35.32C24.8057 35.2942 24.9437 35.2819 25.1156 35.2819C25.2918 35.2819 25.4125 35.286 25.4769 35.2946H25.5219L25.9213 38.2927L27.2103 35.3649V35.3327C27.3006 35.2983 27.4279 35.2819 27.5912 35.2819ZM23.974 38.8981C23.6478 39.0827 23.485 39.259 23.4847 39.4265C23.4847 39.564 23.5384 39.6335 23.6459 39.6335C23.7189 39.6334 23.7793 39.5746 23.8265 39.4587C23.8866 39.3169 23.9354 39.13 23.974 38.8981Z" fill="#2E2E2E"/>
<path d="M27.5912 35.2819L27.5912 35.2371H27.5912V35.2819ZM28.0297 35.3141L28.0741 35.3201L28.0799 35.2771L28.037 35.2699L28.0297 35.3141ZM27.7133 38.0016L27.6686 37.9974L27.6686 37.9976L27.7133 38.0016ZM27.5912 39.2653L27.547 39.2567L27.5466 39.2609L27.5912 39.2653ZM27.5844 39.3815L27.5395 39.3815L27.5396 39.3833L27.5844 39.3815ZM27.7455 39.5495L27.7454 39.5943H27.7455V39.5495ZM28.8226 38.6599L28.8648 38.6447L28.8373 38.5678L28.7872 38.6324L28.8226 38.6599ZM28.9642 39.1179L29.0021 39.1418L29.0113 39.1273L29.0084 39.1105L28.9642 39.1179ZM28.2162 39.9235L28.2423 39.96L28.2424 39.9599L28.2162 39.9235ZM27.3978 40.2331L27.3978 40.2779L27.3978 40.2779L27.3978 40.2331ZM26.8627 40.0329L26.8267 40.0596L26.8267 40.0596L26.8627 40.0329ZM26.7142 39.5876L26.6694 39.5876V39.5876H26.7142ZM26.7269 39.362L26.6824 39.3569L26.6822 39.3586L26.7269 39.362ZM26.9847 37.2731L27.0292 37.2787L26.9436 37.2553L26.9847 37.2731ZM25.9281 39.7165V39.7613H25.9576L25.9692 39.7343L25.9281 39.7165ZM25.3802 39.7165L25.3358 39.7223L25.3409 39.7613H25.3802V39.7165ZM25.0638 37.3122L25.1083 37.3063L25.0201 37.3023L25.0638 37.3122ZM24.6127 39.3112L24.6564 39.3213L24.6564 39.3211L24.6127 39.3112ZM24.2513 40.0134L24.2214 39.98L24.221 39.9804L24.2513 40.0134ZM23.7103 40.239L23.7103 40.2838L23.7103 40.2838L23.7103 40.239ZM23.2269 40.0651L23.1963 40.0979L23.1964 40.0979L23.2269 40.0651ZM23.0267 39.5368L22.9819 39.5368L22.9819 39.5368L23.0267 39.5368ZM24.0844 38.3698L24.103 38.4106L24.1236 38.4011L24.1282 38.379L24.0844 38.3698ZM24.7025 35.32L24.6916 35.2765L24.6627 35.2838L24.6582 35.3133L24.7025 35.32ZM25.1156 35.2819L25.1156 35.2371H25.1156V35.2819ZM25.4769 35.2946L25.471 35.3394H25.4769V35.2946ZM25.5219 35.2946L25.5663 35.2887L25.5611 35.2498H25.5219V35.2946ZM25.9213 38.2927L25.8768 38.2986L25.8979 38.4569L25.9623 38.3107L25.9213 38.2927ZM27.2103 35.3649L27.2513 35.383L27.2551 35.3744V35.3649H27.2103ZM27.2103 35.3327L27.1944 35.2908L27.1655 35.3018V35.3327H27.2103ZM23.974 38.8981L24.0182 38.9055L24.0336 38.8129L23.9519 38.8591L23.974 38.8981ZM23.4847 39.4265L23.4399 39.4264V39.4265H23.4847ZM23.6459 39.6335L23.6459 39.6783L23.6459 39.6783L23.6459 39.6335ZM23.8265 39.4587L23.7853 39.4412L23.785 39.4418L23.8265 39.4587ZM27.5912 35.2819L27.5912 35.3267C27.7526 35.3267 27.8963 35.3374 28.0223 35.3584L28.0297 35.3141L28.037 35.2699C27.9052 35.248 27.7564 35.2371 27.5912 35.2371L27.5912 35.2819ZM28.0297 35.3141L27.9852 35.3082C27.852 36.2968 27.7461 37.1932 27.6686 37.9974L27.7133 38.0016L27.7579 38.0059C27.8352 37.2031 27.9409 36.3079 28.0741 35.3201L28.0297 35.3141ZM27.7133 38.0016L27.6686 37.9976C27.6322 38.3962 27.6039 38.7009 27.5836 38.9114C27.5631 39.1239 27.551 39.2371 27.5472 39.2567L27.5912 39.2653L27.6352 39.2739C27.6401 39.2487 27.6526 39.1288 27.6728 38.92C27.6931 38.7093 27.7215 38.4044 27.7579 38.0057L27.7133 38.0016ZM27.5912 39.2653L27.5466 39.2609C27.5422 39.3046 27.5395 39.3451 27.5395 39.3815L27.5844 39.3815L27.6292 39.3815C27.6292 39.3492 27.6316 39.3119 27.6358 39.2698L27.5912 39.2653ZM27.5844 39.3815L27.5396 39.3833C27.5419 39.4453 27.5584 39.4996 27.5956 39.5383C27.6334 39.5777 27.6859 39.5942 27.7454 39.5943L27.7455 39.5495L27.7455 39.5047C27.7022 39.5046 27.6763 39.4929 27.6603 39.4763C27.6437 39.459 27.631 39.4294 27.6291 39.3798L27.5844 39.3815ZM27.7455 39.5495V39.5943C27.8904 39.5943 28.055 39.5118 28.2369 39.3616C28.42 39.2104 28.6272 38.9851 28.8581 38.6873L28.8226 38.6599L28.7872 38.6324C28.5582 38.9277 28.3557 39.1472 28.1798 39.2925C28.0025 39.4389 27.8584 39.5047 27.7455 39.5047V39.5495ZM28.8226 38.6599L28.7804 38.675C28.8623 38.9033 28.9079 39.0525 28.92 39.1252L28.9642 39.1179L29.0084 39.1105C28.9948 39.0285 28.9462 38.8717 28.8648 38.6447L28.8226 38.6599ZM28.9642 39.1179L28.9263 39.0939C28.7229 39.4159 28.4772 39.6802 28.19 39.8872L28.2162 39.9235L28.2424 39.9599C28.5395 39.7458 28.793 39.4728 29.0021 39.1418L28.9642 39.1179ZM28.2162 39.9235L28.1901 39.8871C27.9071 40.0898 27.6433 40.1882 27.3978 40.1883L27.3978 40.2331L27.3978 40.2779C27.6679 40.2779 27.9497 40.1695 28.2423 39.96L28.2162 39.9235ZM27.3978 40.2331V40.1883C27.1462 40.1883 26.9852 40.1228 26.8987 40.0062L26.8627 40.0329L26.8267 40.0596C26.9378 40.2094 27.1338 40.2779 27.3978 40.2779V40.2331ZM26.8627 40.0329L26.8987 40.0062C26.8054 39.8805 26.7591 39.7411 26.7591 39.5876H26.7142H26.6694C26.6694 39.7607 26.7222 39.9188 26.8267 40.0596L26.8627 40.0329ZM26.7142 39.5876L26.7591 39.5876C26.7591 39.5507 26.763 39.4769 26.7716 39.3654L26.7269 39.362L26.6822 39.3586C26.6737 39.4698 26.6694 39.5468 26.6694 39.5876L26.7142 39.5876ZM26.7269 39.362L26.7715 39.3671C26.7844 39.2547 26.8703 38.5584 27.0292 37.2787L26.9847 37.2731L26.9403 37.2676C26.7814 38.547 26.6955 39.2439 26.6824 39.3569L26.7269 39.362ZM26.9847 37.2731L26.9436 37.2553L25.887 39.6987L25.9281 39.7165L25.9692 39.7343L27.0259 37.2909L26.9847 37.2731ZM25.9281 39.7165V39.6717H25.3802V39.7165V39.7613H25.9281V39.7165ZM25.3802 39.7165L25.4247 39.7106L25.1083 37.3063L25.0638 37.3122L25.0194 37.318L25.3358 39.7223L25.3802 39.7165ZM25.0638 37.3122L25.0201 37.3023L24.5689 39.3014L24.6127 39.3112L24.6564 39.3211L25.1076 37.3221L25.0638 37.3122ZM24.6127 39.3112L24.569 39.3012C24.4971 39.6138 24.3797 39.838 24.2214 39.98L24.2513 40.0134L24.2813 40.0467C24.4581 39.888 24.5821 39.6443 24.6564 39.3213L24.6127 39.3112ZM24.2513 40.0134L24.221 39.9804C24.0649 40.1241 23.8952 40.1941 23.7103 40.1941L23.7103 40.239L23.7103 40.2838C23.9206 40.2837 24.1113 40.2032 24.2817 40.0463L24.2513 40.0134ZM23.7103 40.239V40.1941C23.5221 40.1941 23.3724 40.1393 23.2575 40.0323L23.2269 40.0651L23.1964 40.0979C23.3306 40.2228 23.5034 40.2838 23.7103 40.2838V40.239ZM23.2269 40.0651L23.2575 40.0324C23.1356 39.9183 23.0716 39.7552 23.0716 39.5368L23.0267 39.5368L22.9819 39.5368C22.982 39.7736 23.052 39.9628 23.1963 40.0979L23.2269 40.0651ZM23.0267 39.5368H23.0716C23.0716 39.109 23.4021 38.7311 24.103 38.4106L24.0844 38.3698L24.0657 38.3291C23.3569 38.6532 22.9819 39.0535 22.9819 39.5368H23.0267ZM24.0844 38.3698L24.1282 38.379C24.5105 36.5447 24.7165 35.526 24.7468 35.3268L24.7025 35.32L24.6582 35.3133C24.6284 35.5094 24.4232 36.5245 24.0405 38.3607L24.0844 38.3698ZM24.7025 35.32L24.7134 35.3635C24.8114 35.339 24.9452 35.3267 25.1156 35.3267V35.2819V35.2371C24.9421 35.2371 24.7999 35.2494 24.6916 35.2765L24.7025 35.32ZM25.1156 35.2819L25.1156 35.3267C25.2921 35.3267 25.4099 35.3309 25.471 35.339L25.4769 35.2946L25.4829 35.2502C25.415 35.2411 25.2914 35.2371 25.1156 35.2371L25.1156 35.2819ZM25.4769 35.2946V35.3394H25.5219V35.2946V35.2498H25.4769V35.2946ZM25.5219 35.2946L25.4774 35.3005L25.8768 38.2986L25.9213 38.2927L25.9657 38.2867L25.5663 35.2887L25.5219 35.2946ZM25.9213 38.2927L25.9623 38.3107L27.2513 35.383L27.2103 35.3649L27.1693 35.3469L25.8802 38.2746L25.9213 38.2927ZM27.2103 35.3649H27.2551V35.3327H27.2103H27.1655V35.3649H27.2103ZM27.2103 35.3327L27.2263 35.3746C27.309 35.3431 27.4298 35.3267 27.5912 35.3267V35.2819V35.2371C27.4259 35.2371 27.2922 35.2536 27.1944 35.2908L27.2103 35.3327ZM23.974 38.8981L23.9519 38.8591C23.7868 38.9526 23.6601 39.0455 23.5743 39.1383C23.4884 39.2311 23.4401 39.3274 23.4399 39.4264L23.4847 39.4265L23.5296 39.4265C23.5297 39.3581 23.5629 39.2825 23.64 39.1992C23.7172 39.1158 23.835 39.0283 23.9961 38.9371L23.974 38.8981ZM23.4847 39.4265H23.4399C23.4399 39.4998 23.454 39.5632 23.4896 39.609C23.5269 39.657 23.5817 39.6783 23.6459 39.6783V39.6335V39.5887C23.6026 39.5887 23.5769 39.5752 23.5604 39.554C23.5423 39.5307 23.5296 39.4906 23.5296 39.4265H23.4847ZM23.6459 39.6335L23.6459 39.6783C23.7481 39.6782 23.8194 39.5951 23.868 39.4756L23.8265 39.4587L23.785 39.4418C23.7393 39.5541 23.6896 39.5886 23.6458 39.5887L23.6459 39.6335ZM23.8265 39.4587L23.8678 39.4762C23.9298 39.3299 23.9793 39.1391 24.0182 38.9055L23.974 38.8981L23.9298 38.8908C23.8914 39.1209 23.8434 39.304 23.7853 39.4412L23.8265 39.4587Z" fill="black" mask="url(#path-5-outside-1_64_364)"/>
</svg>
