<svg width="43" height="47" viewBox="0 0 43 47" fill="none" xmlns="http://www.w3.org/2000/svg">
<path d="M41.18 12.7294V34.842L21.5243 45.8983V22.5572L41.18 12.7294Z" fill="#2FD6C9"/>
<path d="M41.18 12.7294L21.5243 22.5572L1.86865 12.7294L21.5243 1.67303L41.18 12.7294Z" fill="#3B3C9C"/>
<path d="M21.2179 0.421021C21.4467 0.328939 21.7076 0.344321 21.9259 0.466919L41.5812 11.5236C41.8393 11.6688 41.9991 11.9423 41.9991 12.2384V34.3507C41.9991 34.6469 41.8394 34.9203 41.5812 35.0656L21.9259 46.1212C21.6758 46.2618 21.37 46.2624 21.1202 46.1212L15.6437 43.0236L8.01672 38.7618L8.01379 38.7599L1.46497 35.0646C1.20777 34.9191 1.04797 34.6462 1.04797 34.3507V12.2384C1.04804 11.9425 1.20814 11.6688 1.46594 11.5236L21.1222 0.466919L21.2179 0.421021ZM32.172 17.6583V28.2081C32.172 28.661 31.8045 29.0284 31.3517 29.0284C30.8991 29.0282 30.5323 28.6608 30.5323 28.2081V18.4777L22.3439 22.5724V44.005L40.3595 33.8702V13.5646L32.172 17.6583ZM2.6886 33.8712L8.81555 37.3302H8.81653L16.4445 41.5929L16.4474 41.5948L20.7042 44.0011V22.5724L2.6886 13.5646V33.8712ZM3.61536 12.1954L21.5236 21.1486L29.5187 17.1515L21.1573 12.9718C20.7526 12.7692 20.5877 12.2761 20.7902 11.8712C20.9926 11.4663 21.4858 11.3028 21.8907 11.505L31.3507 16.2345L39.4318 12.1945L21.5236 2.12219L3.61536 12.1954Z" fill="#F5F6FA"/>
<path d="M21.2179 0.421021L21.1341 0.212914C21.1297 0.214716 21.1252 0.216663 21.1209 0.21875L21.2179 0.421021ZM21.9259 0.466919L22.0359 0.271401L22.0357 0.271323L21.9259 0.466919ZM41.5812 11.5236L41.4712 11.7191L41.4712 11.7191L41.5812 11.5236ZM41.9991 12.2384L42.2235 12.2384L42.2235 12.2384L41.9991 12.2384ZM41.5812 35.0656L41.6912 35.2611L41.6912 35.2611L41.5812 35.0656ZM21.9259 46.1212L22.0358 46.3168L22.0359 46.3167L21.9259 46.1212ZM21.1202 46.1212L21.0098 46.3165L21.0098 46.3165L21.1202 46.1212ZM15.6437 43.0236L15.7541 42.8283L15.7531 42.8277L15.6437 43.0236ZM8.01672 38.7618L7.89229 38.9485C7.89717 38.9517 7.90218 38.9548 7.9073 38.9577L8.01672 38.7618ZM8.01379 38.7599L8.13823 38.5732C8.13361 38.5702 8.12887 38.5672 8.12404 38.5645L8.01379 38.7599ZM1.46497 35.0646L1.35451 35.2598L1.35472 35.2599L1.46497 35.0646ZM1.04797 12.2384L0.823644 12.2384V12.2384H1.04797ZM1.46594 11.5236L1.35596 11.328L1.35581 11.3281L1.46594 11.5236ZM21.1222 0.466919L21.0252 0.264649C21.0208 0.266757 21.0165 0.269009 21.0122 0.271399L21.1222 0.466919ZM32.172 17.6583L32.0717 17.4577C31.9957 17.4957 31.9477 17.5734 31.9477 17.6583H32.172ZM31.3517 29.0284L31.3515 29.2528H31.3517V29.0284ZM30.5323 18.4777H30.7567C30.7567 18.3999 30.7164 18.3277 30.6503 18.2868C30.5841 18.246 30.5016 18.2422 30.432 18.277L30.5323 18.4777ZM22.3439 22.5724L22.2435 22.3717C22.1675 22.4097 22.1195 22.4874 22.1195 22.5724H22.3439ZM22.3439 44.005H22.1195C22.1195 44.0847 22.1618 44.1584 22.2306 44.1987C22.2994 44.2389 22.3844 44.2396 22.4539 44.2005L22.3439 44.005ZM40.3595 33.8702L40.4695 34.0658C40.5401 34.026 40.5838 33.9513 40.5838 33.8702H40.3595ZM40.3595 13.5646H40.5838C40.5838 13.4868 40.5436 13.4146 40.4774 13.3737C40.4113 13.3329 40.3287 13.3292 40.2592 13.3639L40.3595 13.5646ZM2.6886 33.8712H2.46427C2.46427 33.9521 2.50785 34.0268 2.57831 34.0666L2.6886 33.8712ZM8.81555 37.3302L8.70527 37.5255C8.73892 37.5445 8.77691 37.5545 8.81555 37.5545V37.3302ZM8.81653 37.3302L8.92596 37.1344C8.89252 37.1157 8.85484 37.1059 8.81653 37.1059V37.3302ZM16.4445 41.5929L16.5689 41.4062C16.564 41.403 16.559 41.3999 16.5539 41.3971L16.4445 41.5929ZM16.4474 41.5948L16.323 41.7815C16.3275 41.7846 16.3322 41.7874 16.337 41.7901L16.4474 41.5948ZM20.7042 44.0011L20.5938 44.1964C20.6633 44.2356 20.7484 44.2351 20.8173 44.1949C20.8862 44.1547 20.9286 44.0809 20.9286 44.0011H20.7042ZM20.7042 22.5724H20.9286C20.9286 22.4874 20.8805 22.4097 20.8045 22.3717L20.7042 22.5724ZM2.6886 13.5646L2.78892 13.3639C2.71938 13.3292 2.6368 13.3329 2.57066 13.3737C2.50453 13.4146 2.46427 13.4868 2.46427 13.5646H2.6886ZM3.61536 12.1954L3.50538 11.9999C3.43303 12.0406 3.38907 12.1179 3.39109 12.2009C3.39312 12.2839 3.4408 12.359 3.51504 12.3961L3.61536 12.1954ZM21.5236 21.1486L21.4232 21.3492C21.4864 21.3808 21.5607 21.3808 21.6239 21.3492L21.5236 21.1486ZM29.5187 17.1515L29.619 17.3521C29.695 17.3141 29.743 17.2365 29.743 17.1515C29.743 17.0665 29.695 16.9888 29.619 16.9508L29.5187 17.1515ZM21.1573 12.9718L21.0569 13.1724L21.057 13.1725L21.1573 12.9718ZM20.7902 11.8712L20.5895 11.7709L20.5895 11.7709L20.7902 11.8712ZM21.8907 11.505L21.9911 11.3044L21.991 11.3043L21.8907 11.505ZM31.3507 16.2345L31.2504 16.4351C31.3135 16.4667 31.3879 16.4667 31.451 16.4351L31.3507 16.2345ZM39.4318 12.1945L39.5321 12.3951C39.6063 12.358 39.654 12.2829 39.656 12.1999C39.658 12.1169 39.6141 12.0396 39.5417 11.9989L39.4318 12.1945ZM21.5236 2.12219L21.6335 1.92667C21.5652 1.88826 21.4819 1.88826 21.4136 1.92667L21.5236 2.12219ZM21.2179 0.421021L21.3017 0.629127C21.4678 0.562269 21.6574 0.573442 21.8161 0.662515L21.9259 0.466919L22.0357 0.271323C21.7577 0.115201 21.4256 0.0956093 21.1341 0.212914L21.2179 0.421021ZM21.9259 0.466919L21.8159 0.662436L41.4712 11.7191L41.5812 11.5236L41.6912 11.328L22.0359 0.271401L21.9259 0.466919ZM41.5812 11.5236L41.4712 11.7191C41.6586 11.8245 41.7748 12.0232 41.7748 12.2385L41.9991 12.2384L42.2235 12.2384C42.2234 11.8613 42.02 11.513 41.6912 11.328L41.5812 11.5236ZM41.9991 12.2384H41.7748V34.3507H41.9991H42.2235V12.2384H41.9991ZM41.9991 34.3507H41.7748C41.7748 34.5659 41.6587 34.7646 41.4712 34.87L41.5812 35.0656L41.6912 35.2611C42.02 35.0761 42.2235 34.7279 42.2235 34.3507H41.9991ZM41.5812 35.0656L41.4712 34.87L21.8159 45.9257L21.9259 46.1212L22.0359 46.3167L41.6912 35.2611L41.5812 35.0656ZM21.9259 46.1212L21.816 45.9257C21.6338 46.0281 21.4115 46.0282 21.2306 45.9259L21.1202 46.1212L21.0098 46.3165C21.3285 46.4966 21.7178 46.4955 22.0358 46.3168L21.9259 46.1212ZM21.1202 46.1212L21.2307 45.926L15.7541 42.8283L15.6437 43.0236L15.5332 43.2188L21.0098 46.3165L21.1202 46.1212ZM15.6437 43.0236L15.7531 42.8277L8.12615 38.566L8.01672 38.7618L7.9073 38.9577L15.5343 43.2194L15.6437 43.0236ZM8.01672 38.7618L8.14116 38.5752L8.13823 38.5732L8.01379 38.7599L7.88936 38.9465L7.89229 38.9485L8.01672 38.7618ZM8.01379 38.7599L8.12404 38.5645L1.57521 34.8692L1.46497 35.0646L1.35472 35.2599L7.90355 38.9553L8.01379 38.7599ZM1.46497 35.0646L1.57542 34.8693C1.3883 34.7635 1.2723 34.565 1.2723 34.3507H1.04797H0.823644C0.823644 34.7274 1.02725 35.0747 1.35451 35.2598L1.46497 35.0646ZM1.04797 34.3507H1.2723V12.2384H1.04797H0.823644V34.3507H1.04797ZM1.04797 12.2384L1.2723 12.2385C1.27235 12.0236 1.38873 11.8246 1.57607 11.719L1.46594 11.5236L1.35581 11.3281C1.02755 11.5131 0.823728 11.8614 0.823644 12.2384L1.04797 12.2384ZM1.46594 11.5236L1.57592 11.7191L21.2322 0.662439L21.1222 0.466919L21.0122 0.271399L1.35596 11.328L1.46594 11.5236ZM21.1222 0.466919L21.2192 0.669189L21.3149 0.623291L21.2179 0.421021L21.1209 0.21875L21.0252 0.264649L21.1222 0.466919ZM32.172 17.6583H31.9477V28.2081H32.172H32.3963V17.6583H32.172ZM32.172 28.2081H31.9477C31.9477 28.5371 31.6806 28.8041 31.3517 28.8041V29.0284V29.2528C31.9284 29.2528 32.3963 28.7849 32.3963 28.2081H32.172ZM31.3517 29.0284L31.3518 28.8041C31.0232 28.8039 30.7567 28.5371 30.7567 28.2081H30.5323H30.308C30.308 28.7845 30.7749 29.2524 31.3515 29.2528L31.3517 29.0284ZM30.5323 28.2081H30.7567V18.4777H30.5323H30.308V28.2081H30.5323ZM30.5323 18.4777L30.432 18.277L22.2435 22.3717L22.3439 22.5724L22.4442 22.773L30.6327 18.6783L30.5323 18.4777ZM22.3439 22.5724H22.1195V44.005H22.3439H22.5682V22.5724H22.3439ZM22.3439 44.005L22.4539 44.2005L40.4695 34.0658L40.3595 33.8702L40.2495 33.6747L22.2339 43.8095L22.3439 44.005ZM40.3595 33.8702H40.5838V13.5646H40.3595H40.1352V33.8702H40.3595ZM40.3595 13.5646L40.2592 13.3639L32.0717 17.4577L32.172 17.6583L32.2723 17.859L40.4598 13.7652L40.3595 13.5646ZM2.6886 33.8712L2.57831 34.0666L8.70527 37.5255L8.81555 37.3302L8.92584 37.1349L2.79888 33.6759L2.6886 33.8712ZM8.81555 37.3302V37.5545H8.81653V37.3302V37.1059H8.81555V37.3302ZM8.81653 37.3302L8.7071 37.526L16.335 41.7887L16.4445 41.5929L16.5539 41.3971L8.92596 37.1344L8.81653 37.3302ZM16.4445 41.5929L16.32 41.7795L16.323 41.7815L16.4474 41.5948L16.5718 41.4082L16.5689 41.4062L16.4445 41.5929ZM16.4474 41.5948L16.337 41.7901L20.5938 44.1964L20.7042 44.0011L20.8146 43.8058L16.5578 41.3996L16.4474 41.5948ZM20.7042 44.0011H20.9286V22.5724H20.7042H20.4799V44.0011H20.7042ZM20.7042 22.5724L20.8045 22.3717L2.78892 13.3639L2.6886 13.5646L2.58828 13.7652L20.6039 22.773L20.7042 22.5724ZM2.6886 13.5646H2.46427V33.8712H2.6886H2.91293V13.5646H2.6886ZM3.61536 12.1954L3.51504 12.3961L21.4232 21.3492L21.5236 21.1486L21.6239 20.9479L3.71567 11.9948L3.61536 12.1954ZM21.5236 21.1486L21.6239 21.3492L29.619 17.3521L29.5187 17.1515L29.4184 16.9508L21.4232 20.9479L21.5236 21.1486ZM29.5187 17.1515L29.619 16.9508L21.2577 12.7711L21.1573 12.9718L21.057 13.1725L29.4184 17.3521L29.5187 17.1515ZM21.1573 12.9718L21.2578 12.7712C20.9635 12.6239 20.8439 12.2654 20.9908 11.9715L20.7902 11.8712L20.5895 11.7709C20.3316 12.2868 20.5417 12.9145 21.0569 13.1724L21.1573 12.9718ZM20.7902 11.8712L20.9908 11.9715C21.1377 11.6778 21.496 11.5586 21.7905 11.7057L21.8907 11.505L21.991 11.3043C21.4756 11.047 20.8476 11.2548 20.5895 11.7709L20.7902 11.8712ZM21.8907 11.505L21.7904 11.7057L31.2504 16.4351L31.3507 16.2345L31.451 16.0338L21.9911 11.3044L21.8907 11.505ZM31.3507 16.2345L31.451 16.4351L39.5321 12.3951L39.4318 12.1945L39.3314 11.9938L31.2504 16.0338L31.3507 16.2345ZM39.4318 12.1945L39.5417 11.9989L21.6335 1.92667L21.5236 2.12219L21.4136 2.31772L39.3218 12.39L39.4318 12.1945ZM21.5236 2.12219L21.4136 1.92667L3.50538 11.9999L3.61536 12.1954L3.72534 12.391L21.6335 2.31771L21.5236 2.12219Z" fill="black"/>
<mask id="path-5-outside-1_64_363" maskUnits="userSpaceOnUse" x="22.0332" y="33.2819" width="7" height="7" fill="black">
<rect fill="white" x="22.0332" y="33.2819" width="7" height="7"/>
<path d="M27.5977 34.2819C27.7609 34.2819 27.9072 34.2927 28.0361 34.3141C27.9029 35.3024 27.7971 36.1981 27.7197 37.0016C27.6469 37.799 27.6064 38.2205 27.5977 38.2653C27.5934 38.3082 27.5908 38.3472 27.5908 38.3815C27.5951 38.4931 27.649 38.5494 27.752 38.5495C28.0098 38.5495 28.3692 38.2529 28.8291 37.6599C28.9107 37.8875 28.9578 38.0405 28.9707 38.1179C28.7644 38.4443 28.5148 38.713 28.2227 38.9235C27.9349 39.1296 27.662 39.2331 27.4043 39.2331C27.1465 39.2331 26.968 39.1661 26.8691 39.0329C26.7703 38.8997 26.7207 38.7509 26.7207 38.5876C26.7207 38.5488 26.7248 38.4733 26.7334 38.362C26.7464 38.2493 26.8323 37.5527 26.9912 36.2731L25.9346 38.7165H25.3867L25.0703 36.3122L24.6191 38.3112C24.5461 38.6291 24.4254 38.863 24.2578 39.0134C24.0946 39.1637 23.9144 39.2389 23.7168 39.239C23.5192 39.239 23.358 39.181 23.2334 39.0651C23.1002 38.9406 23.0333 38.7644 23.0332 38.5368C23.0332 38.0812 23.386 37.6922 24.0908 37.3698C24.4733 35.5346 24.6789 34.5177 24.709 34.32C24.8121 34.2942 24.9502 34.2819 25.1221 34.2819C25.2982 34.2819 25.4189 34.286 25.4834 34.2946H25.5283L25.9277 37.2927L27.2168 34.3649V34.3327C27.3071 34.2983 27.4343 34.2819 27.5977 34.2819ZM23.9805 37.8981C23.6543 38.0827 23.4915 38.259 23.4912 38.4265C23.4912 38.564 23.5449 38.6335 23.6523 38.6335C23.7253 38.6334 23.7858 38.5746 23.833 38.4587C23.8931 38.3169 23.9418 38.13 23.9805 37.8981Z"/>
</mask>
<path d="M27.5977 34.2819C27.7609 34.2819 27.9072 34.2927 28.0361 34.3141C27.9029 35.3024 27.7971 36.1981 27.7197 37.0016C27.6469 37.799 27.6064 38.2205 27.5977 38.2653C27.5934 38.3082 27.5908 38.3472 27.5908 38.3815C27.5951 38.4931 27.649 38.5494 27.752 38.5495C28.0098 38.5495 28.3692 38.2529 28.8291 37.6599C28.9107 37.8875 28.9578 38.0405 28.9707 38.1179C28.7644 38.4443 28.5148 38.713 28.2227 38.9235C27.9349 39.1296 27.662 39.2331 27.4043 39.2331C27.1465 39.2331 26.968 39.1661 26.8691 39.0329C26.7703 38.8997 26.7207 38.7509 26.7207 38.5876C26.7207 38.5488 26.7248 38.4733 26.7334 38.362C26.7464 38.2493 26.8323 37.5527 26.9912 36.2731L25.9346 38.7165H25.3867L25.0703 36.3122L24.6191 38.3112C24.5461 38.6291 24.4254 38.863 24.2578 39.0134C24.0946 39.1637 23.9144 39.2389 23.7168 39.239C23.5192 39.239 23.358 39.181 23.2334 39.0651C23.1002 38.9406 23.0333 38.7644 23.0332 38.5368C23.0332 38.0812 23.386 37.6922 24.0908 37.3698C24.4733 35.5346 24.6789 34.5177 24.709 34.32C24.8121 34.2942 24.9502 34.2819 25.1221 34.2819C25.2982 34.2819 25.4189 34.286 25.4834 34.2946H25.5283L25.9277 37.2927L27.2168 34.3649V34.3327C27.3071 34.2983 27.4343 34.2819 27.5977 34.2819ZM23.9805 37.8981C23.6543 38.0827 23.4915 38.259 23.4912 38.4265C23.4912 38.564 23.5449 38.6335 23.6523 38.6335C23.7253 38.6334 23.7858 38.5746 23.833 38.4587C23.8931 38.3169 23.9418 38.13 23.9805 37.8981Z" fill="#F5F6FA"/>
<path d="M27.5977 34.2819L27.5977 34.2371H27.5977V34.2819ZM28.0361 34.3141L28.0806 34.3201L28.0864 34.2771L28.0435 34.2699L28.0361 34.3141ZM27.7197 37.0016L27.6751 36.9974L27.6751 36.9976L27.7197 37.0016ZM27.5977 38.2653L27.5535 38.2567L27.5531 38.2609L27.5977 38.2653ZM27.5908 38.3815L27.546 38.3815L27.546 38.3833L27.5908 38.3815ZM27.752 38.5495L27.7519 38.5943H27.752V38.5495ZM28.8291 37.6599L28.8713 37.6447L28.8437 37.5678L28.7937 37.6324L28.8291 37.6599ZM28.9707 38.1179L29.0086 38.1418L29.0177 38.1273L29.0149 38.1105L28.9707 38.1179ZM28.2227 38.9235L28.2488 38.96L28.2489 38.9599L28.2227 38.9235ZM27.4043 39.2331L27.4043 39.2779L27.4043 39.2779L27.4043 39.2331ZM26.8691 39.0329L26.8331 39.0596L26.8332 39.0596L26.8691 39.0329ZM26.7207 38.5876L26.6759 38.5876V38.5876H26.7207ZM26.7334 38.362L26.6888 38.3569L26.6887 38.3586L26.7334 38.362ZM26.9912 36.2731L27.0357 36.2787L26.9501 36.2553L26.9912 36.2731ZM25.9346 38.7165V38.7613H25.964L25.9757 38.7343L25.9346 38.7165ZM25.3867 38.7165L25.3423 38.7223L25.3474 38.7613H25.3867V38.7165ZM25.0703 36.3122L25.1148 36.3063L25.0266 36.3023L25.0703 36.3122ZM24.6191 38.3112L24.6628 38.3213L24.6629 38.3211L24.6191 38.3112ZM24.2578 39.0134L24.2279 38.98L24.2275 38.9804L24.2578 39.0134ZM23.7168 39.239L23.7168 39.2838L23.7168 39.2838L23.7168 39.239ZM23.2334 39.0651L23.2028 39.0979L23.2029 39.0979L23.2334 39.0651ZM23.0332 38.5368L22.9884 38.5368L22.9884 38.5368L23.0332 38.5368ZM24.0908 37.3698L24.1095 37.4106L24.1301 37.4011L24.1347 37.379L24.0908 37.3698ZM24.709 34.32L24.6981 34.2765L24.6692 34.2838L24.6647 34.3133L24.709 34.32ZM25.1221 34.2819L25.1221 34.2371H25.1221V34.2819ZM25.4834 34.2946L25.4774 34.3394H25.4834V34.2946ZM25.5283 34.2946L25.5727 34.2887L25.5676 34.2498H25.5283V34.2946ZM25.9277 37.2927L25.8833 37.2986L25.9044 37.4569L25.9688 37.3107L25.9277 37.2927ZM27.2168 34.3649L27.2578 34.383L27.2616 34.3744V34.3649H27.2168ZM27.2168 34.3327L27.2008 34.2908L27.172 34.3018V34.3327H27.2168ZM23.9805 37.8981L24.0247 37.9055L24.0401 37.8129L23.9584 37.8591L23.9805 37.8981ZM23.4912 38.4265L23.4464 38.4264V38.4265H23.4912ZM23.6523 38.6335L23.6523 38.6783L23.6524 38.6783L23.6523 38.6335ZM23.833 38.4587L23.7917 38.4412L23.7915 38.4418L23.833 38.4587ZM27.5977 34.2819L27.5977 34.3267C27.7591 34.3267 27.9028 34.3374 28.0288 34.3584L28.0361 34.3141L28.0435 34.2699C27.9116 34.248 27.7628 34.2371 27.5977 34.2371L27.5977 34.2819ZM28.0361 34.3141L27.9917 34.3082C27.8585 35.2968 27.7525 36.1932 27.6751 36.9974L27.7197 37.0016L27.7643 37.0059C27.8416 36.2031 27.9474 35.3079 28.0806 34.3201L28.0361 34.3141ZM27.7197 37.0016L27.6751 36.9976C27.6387 37.3962 27.6103 37.7009 27.59 37.9114C27.5695 38.1239 27.5575 38.2371 27.5537 38.2567L27.5977 38.2653L27.6416 38.2739C27.6466 38.2487 27.6591 38.1288 27.6793 37.92C27.6996 37.7092 27.7279 37.4044 27.7644 37.0057L27.7197 37.0016ZM27.5977 38.2653L27.5531 38.2609C27.5487 38.3046 27.546 38.3451 27.546 38.3815L27.5908 38.3815L27.6356 38.3815C27.6356 38.3492 27.638 38.3119 27.6423 38.2698L27.5977 38.2653ZM27.5908 38.3815L27.546 38.3833C27.5484 38.4453 27.5648 38.4996 27.6021 38.5384C27.6398 38.5778 27.6924 38.5942 27.7519 38.5943L27.752 38.5495L27.752 38.5047C27.7086 38.5046 27.6827 38.4929 27.6667 38.4763C27.6502 38.459 27.6375 38.4294 27.6356 38.3798L27.5908 38.3815ZM27.752 38.5495V38.5943C27.8969 38.5943 28.0615 38.5118 28.2433 38.3616C28.4265 38.2104 28.6336 37.9851 28.8645 37.6873L28.8291 37.6599L28.7937 37.6324C28.5647 37.9277 28.3622 38.1472 28.1862 38.2925C28.009 38.4389 27.8649 38.5047 27.752 38.5047V38.5495ZM28.8291 37.6599L28.7869 37.675C28.8687 37.9033 28.9144 38.0525 28.9265 38.1252L28.9707 38.1179L29.0149 38.1105C29.0013 38.0285 28.9527 37.8717 28.8713 37.6447L28.8291 37.6599ZM28.9707 38.1179L28.9328 38.0939C28.7294 38.4159 28.4836 38.6802 28.1965 38.8872L28.2227 38.9235L28.2489 38.9599C28.546 38.7458 28.7995 38.4728 29.0086 38.1418L28.9707 38.1179ZM28.2227 38.9235L28.1966 38.8871C27.9136 39.0898 27.6497 39.1882 27.4043 39.1883L27.4043 39.2331L27.4043 39.2779C27.6744 39.2779 27.9562 39.1695 28.2488 38.96L28.2227 38.9235ZM27.4043 39.2331V39.1883C27.1527 39.1883 26.9917 39.1228 26.9051 39.0062L26.8691 39.0329L26.8332 39.0596C26.9443 39.2094 27.1403 39.2779 27.4043 39.2779V39.2331ZM26.8691 39.0329L26.9051 39.0062C26.8119 38.8805 26.7655 38.7411 26.7655 38.5876H26.7207H26.6759C26.6759 38.7607 26.7287 38.9188 26.8331 39.0596L26.8691 39.0329ZM26.7207 38.5876L26.7655 38.5876C26.7656 38.5507 26.7695 38.4769 26.7781 38.3654L26.7334 38.362L26.6887 38.3586C26.6802 38.4698 26.6759 38.5468 26.6759 38.5876L26.7207 38.5876ZM26.7334 38.362L26.7779 38.3671C26.7909 38.2546 26.8768 37.5584 27.0357 36.2787L26.9912 36.2731L26.9467 36.2676C26.7879 37.547 26.7019 38.2439 26.6889 38.3569L26.7334 38.362ZM26.9912 36.2731L26.9501 36.2553L25.8934 38.6987L25.9346 38.7165L25.9757 38.7343L27.0324 36.2909L26.9912 36.2731ZM25.9346 38.7165V38.6717H25.3867V38.7165V38.7613H25.9346V38.7165ZM25.3867 38.7165L25.4312 38.7106L25.1148 36.3063L25.0703 36.3122L25.0259 36.318L25.3423 38.7223L25.3867 38.7165ZM25.0703 36.3122L25.0266 36.3023L24.5754 38.3014L24.6191 38.3112L24.6629 38.3211L25.114 36.3221L25.0703 36.3122ZM24.6191 38.3112L24.5755 38.3012C24.5036 38.6138 24.3861 38.838 24.2279 38.98L24.2578 39.0134L24.2877 39.0467C24.4646 38.888 24.5886 38.6443 24.6628 38.3213L24.6191 38.3112ZM24.2578 39.0134L24.2275 38.9804C24.0714 39.1241 23.9017 39.1941 23.7168 39.1941L23.7168 39.239L23.7168 39.2838C23.9271 39.2837 24.1178 39.2032 24.2882 39.0463L24.2578 39.0134ZM23.7168 39.239V39.1941C23.5286 39.1941 23.3789 39.1393 23.2639 39.0323L23.2334 39.0651L23.2029 39.0979C23.3371 39.2228 23.5098 39.2838 23.7168 39.2838V39.239ZM23.2334 39.0651L23.264 39.0324C23.142 38.9183 23.0781 38.7552 23.078 38.5368L23.0332 38.5368L22.9884 38.5368C22.9885 38.7736 23.0584 38.9628 23.2028 39.0979L23.2334 39.0651ZM23.0332 38.5368H23.078C23.078 38.109 23.4086 37.7311 24.1095 37.4106L24.0908 37.3698L24.0722 37.3291C23.3634 37.6532 22.9884 38.0535 22.9884 38.5368H23.0332ZM24.0908 37.3698L24.1347 37.379C24.517 35.5447 24.723 34.526 24.7533 34.3268L24.709 34.32L24.6647 34.3133C24.6348 34.5094 24.4297 35.5245 24.0469 37.3607L24.0908 37.3698ZM24.709 34.32L24.7199 34.3635C24.8179 34.339 24.9517 34.3267 25.1221 34.3267V34.2819V34.2371C24.9486 34.2371 24.8064 34.2494 24.6981 34.2765L24.709 34.32ZM25.1221 34.2819L25.1221 34.3267C25.2986 34.3267 25.4164 34.3309 25.4775 34.339L25.4834 34.2946L25.4893 34.2502C25.4215 34.2411 25.2979 34.2371 25.1221 34.2371L25.1221 34.2819ZM25.4834 34.2946V34.3394H25.5283V34.2946V34.2498H25.4834V34.2946ZM25.5283 34.2946L25.4839 34.3005L25.8833 37.2986L25.9277 37.2927L25.9722 37.2867L25.5727 34.2887L25.5283 34.2946ZM25.9277 37.2927L25.9688 37.3107L27.2578 34.383L27.2168 34.3649L27.1758 34.3469L25.8867 37.2746L25.9277 37.2927ZM27.2168 34.3649H27.2616V34.3327H27.2168H27.172V34.3649H27.2168ZM27.2168 34.3327L27.2328 34.3746C27.3154 34.3431 27.4363 34.3267 27.5977 34.3267V34.2819V34.2371C27.4324 34.2371 27.2987 34.2536 27.2008 34.2908L27.2168 34.3327ZM23.9805 37.8981L23.9584 37.8591C23.7933 37.9526 23.6666 38.0455 23.5807 38.1383C23.4948 38.2311 23.4465 38.3274 23.4464 38.4264L23.4912 38.4265L23.536 38.4265C23.5361 38.3581 23.5694 38.2825 23.6465 38.1992C23.7236 38.1158 23.8415 38.0283 24.0025 37.9371L23.9805 37.8981ZM23.4912 38.4265H23.4464C23.4464 38.4998 23.4605 38.5632 23.4961 38.609C23.5333 38.657 23.5882 38.6783 23.6523 38.6783V38.6335V38.5887C23.609 38.5887 23.5833 38.5752 23.5669 38.554C23.5488 38.5307 23.536 38.4906 23.536 38.4265H23.4912ZM23.6523 38.6335L23.6524 38.6783C23.7546 38.6781 23.8258 38.5951 23.8745 38.4756L23.833 38.4587L23.7915 38.4418C23.7457 38.5541 23.6961 38.5886 23.6523 38.5887L23.6523 38.6335ZM23.833 38.4587L23.8743 38.4762C23.9363 38.3299 23.9858 38.1391 24.0247 37.9055L23.9805 37.8981L23.9363 37.8908C23.8979 38.1208 23.8499 38.304 23.7917 38.4412L23.833 38.4587Z" fill="black" mask="url(#path-5-outside-1_64_363)"/>
</svg>
