<svg width="149" height="197" viewBox="0 0 149 197" fill="none" xmlns="http://www.w3.org/2000/svg">
<path d="M137.634 111.718L75.7224 146.543V72.9893L137.634 42.0342V111.718Z" fill="#2FD6C9" stroke="black" stroke-width="1.44618"/>
<path d="M138.357 40.864L75.0001 72.5425L11.6431 40.864L75.0001 5.22571L138.357 40.864Z" fill="#3B3C9C"/>
<path d="M73.8564 1.25977C74.63 0.888509 75.5407 0.914991 76.2949 1.33887L139.652 36.9775C140.484 37.4456 141 38.3266 141 39.2812V110.558C141 111.512 140.485 112.393 139.652 112.861L76.2949 148.499C75.4905 148.951 74.5085 148.951 73.7041 148.499L42.0254 130.681L10.3467 112.861C9.51478 112.393 9.00003 111.512 9 110.558V39.2812C9.00009 38.3267 9.51481 37.4457 10.3467 36.9775L73.7041 1.33887L73.8564 1.25977ZM14.2852 109.011L44.6172 126.073L72.3564 141.677V72.5918L14.2852 43.5566V109.011ZM109.321 56.7529V90.7588C109.321 92.2183 108.137 93.4014 106.678 93.4014C105.219 93.4009 104.035 92.218 104.035 90.7588V59.3955L77.6426 72.5918V141.677L135.714 109.011V43.5566L109.321 56.7529ZM17.2764 39.1426L74.999 68.0039L100.768 55.1201L73.8174 41.6445C72.5124 40.9915 71.9831 39.4039 72.6357 38.0986C73.2885 36.7934 74.8763 36.2646 76.1816 36.917L106.678 52.165L132.722 39.1426L74.999 6.6748L17.2764 39.1426Z" fill="#2E2E2E"/>
<path d="M73.8564 1.25977L73.5436 0.607864C73.5367 0.611144 73.53 0.614532 73.5232 0.618026L73.8564 1.25977ZM76.2949 1.33887L76.6494 0.70864L76.6492 0.708511L76.2949 1.33887ZM139.652 36.9775L140.007 36.3473L140.007 36.3473L139.652 36.9775ZM141 39.2812L141.723 39.2813L141.723 39.2812L141 39.2812ZM141 110.558L141.723 110.558V110.558H141ZM139.652 112.861L140.007 113.492L140.007 113.492L139.652 112.861ZM76.2949 148.499L76.6493 149.129L76.6494 149.129L76.2949 148.499ZM73.7041 148.499L74.0586 147.869L74.0586 147.869L73.7041 148.499ZM42.0254 130.681L41.6709 131.311L41.6709 131.311L42.0254 130.681ZM10.3467 112.861L9.99205 113.491L9.99218 113.492L10.3467 112.861ZM9 110.558L8.27691 110.558L8.27691 110.558L9 110.558ZM9 39.2812L8.27691 39.2812V39.2812H9ZM10.3467 36.9775L9.99218 36.3473L9.99206 36.3474L10.3467 36.9775ZM73.7041 1.33887L73.3709 0.697128C73.3637 0.700846 73.3566 0.704684 73.3496 0.70864L73.7041 1.33887ZM14.2852 109.011H13.5621C13.5621 109.272 13.703 109.513 13.9306 109.641L14.2852 109.011ZM44.6172 126.073L44.2627 126.703L44.2627 126.703L44.6172 126.073ZM72.3564 141.677L72.0019 142.307C72.2258 142.433 72.4997 142.431 72.7215 142.301C72.9432 142.171 73.0795 141.934 73.0795 141.677H72.3564ZM72.3564 72.5918H73.0795C73.0795 72.3179 72.9248 72.0675 72.6798 71.945L72.3564 72.5918ZM14.2852 43.5566L14.6085 42.9099C14.3844 42.7978 14.1182 42.8098 13.905 42.9415C13.6918 43.0733 13.5621 43.306 13.5621 43.5566H14.2852ZM109.321 56.7529L108.998 56.1062C108.753 56.2287 108.598 56.479 108.598 56.7529H109.321ZM109.321 90.7588L110.044 90.7589V90.7588H109.321ZM106.678 93.4014L106.678 94.1245H106.678V93.4014ZM104.035 90.7588L103.312 90.7588L103.312 90.7589L104.035 90.7588ZM104.035 59.3955H104.758C104.758 59.1449 104.628 58.9122 104.415 58.7804C104.202 58.6487 103.936 58.6367 103.712 58.7488L104.035 59.3955ZM77.6426 72.5918L77.3192 71.945C77.0742 72.0675 76.9195 72.3179 76.9195 72.5918H77.6426ZM77.6426 141.677H76.9195C76.9195 141.934 77.0558 142.171 77.2775 142.301C77.4993 142.431 77.7732 142.433 77.9971 142.307L77.6426 141.677ZM135.714 109.011L136.068 109.641C136.296 109.513 136.437 109.272 136.437 109.011H135.714ZM135.714 43.5566H136.437C136.437 43.306 136.307 43.0733 136.094 42.9415C135.881 42.8098 135.615 42.7978 135.39 42.9099L135.714 43.5566ZM17.2764 39.1426L16.9219 38.5123C16.6887 38.6435 16.547 38.8927 16.5535 39.1602C16.56 39.4277 16.7137 39.6697 16.953 39.7893L17.2764 39.1426ZM74.999 68.0039L74.6756 68.6507C74.8792 68.7524 75.1188 68.7524 75.3224 68.6507L74.999 68.0039ZM100.768 55.1201L101.091 55.7669C101.336 55.6444 101.491 55.394 101.491 55.1201C101.491 54.8462 101.336 54.5959 101.091 54.4734L100.768 55.1201ZM73.8174 41.6445L73.4938 42.2912L73.494 42.2913L73.8174 41.6445ZM72.6357 38.0986L71.989 37.7752L71.989 37.7753L72.6357 38.0986ZM76.1816 36.917L76.505 36.2702L76.5049 36.2702L76.1816 36.917ZM106.678 52.165L106.354 52.8118C106.558 52.9136 106.798 52.9136 107.001 52.8118L106.678 52.165ZM132.722 39.1426L133.045 39.7893C133.284 39.6697 133.438 39.4277 133.445 39.1602C133.451 38.8927 133.309 38.6435 133.076 38.5123L132.722 39.1426ZM74.999 6.6748L75.3535 6.04457C75.1334 5.92076 74.8646 5.92076 74.6445 6.04457L74.999 6.6748ZM73.8564 1.25977L74.1693 1.91167C74.731 1.64208 75.3927 1.66129 75.9406 1.96922L76.2949 1.33887L76.6492 0.708511C75.6887 0.168695 74.529 0.134942 73.5436 0.607864L73.8564 1.25977ZM76.2949 1.33887L75.9404 1.96909L139.298 37.6078L139.652 36.9775L140.007 36.3473L76.6494 0.70864L76.2949 1.33887ZM139.652 36.9775L139.298 37.6078C139.902 37.9478 140.277 38.588 140.277 39.2813L141 39.2812L141.723 39.2812C141.723 38.0652 141.066 36.9434 140.007 36.3473L139.652 36.9775ZM141 39.2812H140.277V110.558H141H141.723V39.2812H141ZM141 110.558L140.277 110.558C140.277 111.251 139.902 111.891 139.298 112.231L139.652 112.861L140.007 113.492C141.067 112.895 141.723 111.774 141.723 110.558L141 110.558ZM139.652 112.861L139.298 112.231L75.9404 147.869L76.2949 148.499L76.6494 149.129L140.007 113.492L139.652 112.861ZM76.2949 148.499L75.9405 147.869C75.3561 148.197 74.6428 148.197 74.0586 147.869L73.7041 148.499L73.3496 149.129C74.3742 149.706 75.6249 149.705 76.6493 149.129L76.2949 148.499ZM73.7041 148.499L74.0586 147.869L42.3799 130.05L42.0254 130.681L41.6709 131.311L73.3496 149.129L73.7041 148.499ZM42.0254 130.681L42.3799 130.05L10.7012 112.231L10.3467 112.861L9.99218 113.492L41.6709 131.311L42.0254 130.681ZM10.3467 112.861L10.7013 112.231C10.0972 111.891 9.72311 111.251 9.72309 110.558L9 110.558L8.27691 110.558C8.27695 111.773 8.93238 112.895 9.99205 113.491L10.3467 112.861ZM9 110.558H9.72309V39.2812H9H8.27691V110.558H9ZM9 39.2812L9.72309 39.2813C9.72316 38.5877 10.0973 37.9476 10.7013 37.6077L10.3467 36.9775L9.99206 36.3474C8.93237 36.9437 8.27703 38.0657 8.27691 39.2812L9 39.2812ZM10.3467 36.9775L10.7012 37.6078L74.0586 1.96909L73.7041 1.33887L73.3496 0.70864L9.99218 36.3473L10.3467 36.9775ZM73.7041 1.33887L74.0373 1.98061L74.1897 1.90151L73.8564 1.25977L73.5232 0.618026L73.3709 0.697128L73.7041 1.33887ZM14.2852 109.011L13.9306 109.641L44.2627 126.703L44.6172 126.073L44.9717 125.443L14.6397 108.381L14.2852 109.011ZM44.6172 126.073L44.2627 126.703L72.0019 142.307L72.3564 141.677L72.711 141.047L44.9717 125.443L44.6172 126.073ZM72.3564 141.677H73.0795V72.5918H72.3564H71.6334V141.677H72.3564ZM72.3564 72.5918L72.6798 71.945L14.6085 42.9099L14.2852 43.5566L13.9618 44.2034L72.0331 73.2386L72.3564 72.5918ZM14.2852 43.5566H13.5621V109.011H14.2852H15.0082V43.5566H14.2852ZM109.321 56.7529H108.598V90.7588H109.321H110.044V56.7529H109.321ZM109.321 90.7588L108.598 90.7587C108.598 91.8187 107.738 92.6783 106.678 92.6783V93.4014V94.1245C108.536 94.1245 110.044 92.6179 110.044 90.7589L109.321 90.7588ZM106.678 93.4014L106.678 92.6783C105.618 92.678 104.758 91.8185 104.758 90.7587L104.035 90.7588L103.312 90.7589C103.312 92.6175 104.819 94.1239 106.678 94.1245L106.678 93.4014ZM104.035 90.7588H104.758V59.3955H104.035H103.312V90.7588H104.035ZM104.035 59.3955L103.712 58.7488L77.3192 71.945L77.6426 72.5918L77.966 73.2385L104.359 60.0423L104.035 59.3955ZM77.6426 72.5918H76.9195V141.677H77.6426H78.3657V72.5918H77.6426ZM77.6426 141.677L77.9971 142.307L136.068 109.641L135.714 109.011L135.359 108.381L77.2881 141.047L77.6426 141.677ZM135.714 109.011H136.437V43.5566H135.714H134.991V109.011H135.714ZM135.714 43.5566L135.39 42.9099L108.998 56.1062L109.321 56.7529L109.645 57.3997L136.037 44.2034L135.714 43.5566ZM17.2764 39.1426L16.953 39.7893L74.6756 68.6507L74.999 68.0039L75.3224 67.3572L17.5997 38.4958L17.2764 39.1426ZM74.999 68.0039L75.3224 68.6507L101.091 55.7669L100.768 55.1201L100.444 54.4734L74.6757 67.3571L74.999 68.0039ZM100.768 55.1201L101.091 54.4734L74.1408 40.9978L73.8174 41.6445L73.494 42.2913L100.444 55.7669L100.768 55.1201ZM73.8174 41.6445L74.141 40.9979C73.1929 40.5235 72.8085 39.37 73.2825 38.422L72.6357 38.0986L71.989 37.7753C71.1577 39.4378 71.8319 41.4596 73.4938 42.2912L73.8174 41.6445ZM72.6357 38.0986L73.2825 38.4221C73.7565 37.4742 74.91 37.0898 75.8584 37.5638L76.1816 36.917L76.5049 36.2702C74.8426 35.4394 72.8205 36.1127 71.989 37.7752L72.6357 38.0986ZM76.1816 36.917L75.8583 37.5637L106.354 52.8118L106.678 52.165L107.001 51.5183L76.505 36.2702L76.1816 36.917ZM106.678 52.165L107.001 52.8118L133.045 39.7893L132.722 39.1426L132.398 38.4958L106.354 51.5183L106.678 52.165ZM132.722 39.1426L133.076 38.5123L75.3535 6.04457L74.999 6.6748L74.6445 7.30504L132.367 39.7728L132.722 39.1426ZM74.999 6.6748L74.6445 6.04457L16.9219 38.5123L17.2764 39.1426L17.6309 39.7728L75.3535 7.30504L74.999 6.6748Z" fill="black"/>
<mask id="path-5-outside-1_64_366" maskUnits="userSpaceOnUse" x="78.752" y="109.93" width="21" height="18" fill="black">
<rect fill="white" x="78.752" y="109.93" width="21" height="18"/>
<path d="M94.4648 110.93C94.9909 110.93 95.4616 110.965 95.877 111.035C95.4475 114.221 95.1087 117.109 94.8594 119.7C94.6239 122.276 94.4926 123.634 94.4648 123.773C94.451 123.911 94.4434 124.036 94.4434 124.147C94.4573 124.507 94.6306 124.687 94.9629 124.687C95.7941 124.687 96.9513 123.731 98.4336 121.82C98.6966 122.553 98.849 123.045 98.8906 123.294C98.2257 124.347 97.4223 125.213 96.4805 125.892C95.5523 126.557 94.672 126.89 93.8408 126.89C93.0097 126.89 92.4348 126.675 92.1162 126.245C91.7976 125.816 91.6387 125.338 91.6387 124.812C91.6387 124.687 91.652 124.445 91.6797 124.084C91.7212 123.724 91.9982 121.48 92.5107 117.352L89.1035 125.227H87.3369L86.3184 117.476L84.8643 123.918C84.6288 124.943 84.2404 125.698 83.7002 126.183C83.1739 126.668 82.5922 126.91 81.9551 126.911C81.3178 126.911 80.7982 126.723 80.3965 126.349C79.9671 125.947 79.752 125.38 79.752 124.646C79.752 123.177 80.8882 121.923 83.1602 120.884C84.3931 114.969 85.0573 111.692 85.1543 111.055C85.4867 110.972 85.9304 110.93 86.4844 110.93C87.0524 110.93 87.4406 110.944 87.6484 110.972H87.7939L89.082 120.635L93.2383 111.201V111.097C93.5292 110.986 93.9384 110.93 94.4648 110.93ZM82.8066 122.588C81.7538 123.184 81.2275 123.752 81.2275 124.292C81.2276 124.736 81.4008 124.957 81.7471 124.957C81.9825 124.957 82.1768 124.77 82.3291 124.396C82.523 123.939 82.682 123.336 82.8066 122.588Z"/>
</mask>
<path d="M94.4648 110.93C94.9909 110.93 95.4616 110.965 95.877 111.035C95.4475 114.221 95.1087 117.109 94.8594 119.7C94.6239 122.276 94.4926 123.634 94.4648 123.773C94.451 123.911 94.4434 124.036 94.4434 124.147C94.4573 124.507 94.6306 124.687 94.9629 124.687C95.7941 124.687 96.9513 123.731 98.4336 121.82C98.6966 122.553 98.849 123.045 98.8906 123.294C98.2257 124.347 97.4223 125.213 96.4805 125.892C95.5523 126.557 94.672 126.89 93.8408 126.89C93.0097 126.89 92.4348 126.675 92.1162 126.245C91.7976 125.816 91.6387 125.338 91.6387 124.812C91.6387 124.687 91.652 124.445 91.6797 124.084C91.7212 123.724 91.9982 121.48 92.5107 117.352L89.1035 125.227H87.3369L86.3184 117.476L84.8643 123.918C84.6288 124.943 84.2404 125.698 83.7002 126.183C83.1739 126.668 82.5922 126.91 81.9551 126.911C81.3178 126.911 80.7982 126.723 80.3965 126.349C79.9671 125.947 79.752 125.38 79.752 124.646C79.752 123.177 80.8882 121.923 83.1602 120.884C84.3931 114.969 85.0573 111.692 85.1543 111.055C85.4867 110.972 85.9304 110.93 86.4844 110.93C87.0524 110.93 87.4406 110.944 87.6484 110.972H87.7939L89.082 120.635L93.2383 111.201V111.097C93.5292 110.986 93.9384 110.93 94.4648 110.93ZM82.8066 122.588C81.7538 123.184 81.2275 123.752 81.2275 124.292C81.2276 124.736 81.4008 124.957 81.7471 124.957C81.9825 124.957 82.1768 124.77 82.3291 124.396C82.523 123.939 82.682 123.336 82.8066 122.588Z" fill="#2E2E2E"/>
<path d="M94.4648 110.93L94.4648 110.786H94.4648V110.93ZM95.877 111.035L96.0201 111.054L96.0388 110.915L95.9007 110.892L95.877 111.035ZM94.8594 119.7L94.7156 119.686L94.7155 119.686L94.8594 119.7ZM94.4648 123.773L94.3225 123.744L94.3211 123.758L94.4648 123.773ZM94.4434 124.147H94.2988L94.299 124.152L94.4434 124.147ZM94.9629 124.687L94.9629 124.831H94.9629V124.687ZM98.4336 121.82L98.5696 121.771L98.4807 121.523L98.3194 121.731L98.4336 121.82ZM98.8906 123.294L99.0128 123.371L99.0422 123.325L99.0331 123.271L98.8906 123.294ZM96.4805 125.892L96.5646 126.009L96.5649 126.009L96.4805 125.892ZM93.8408 126.89L93.8408 127.034H93.8408V126.89ZM92.1162 126.245L92.0002 126.332L92.0002 126.332L92.1162 126.245ZM91.6387 124.812L91.4942 124.812L91.4942 124.812L91.6387 124.812ZM91.6797 124.084L91.5361 124.068L91.5356 124.073L91.6797 124.084ZM92.5107 117.352L92.6541 117.37L92.3781 117.295L92.5107 117.352ZM89.1035 125.227V125.371H89.1984L89.2361 125.284L89.1035 125.227ZM87.3369 125.227L87.1937 125.246L87.2102 125.371H87.3369V125.227ZM86.3184 117.476L86.4616 117.457L86.1774 117.444L86.3184 117.476ZM84.8643 123.918L85.0051 123.951L85.0052 123.95L84.8643 123.918ZM83.7002 126.183L83.6037 126.075L83.6023 126.077L83.7002 126.183ZM81.9551 126.911L81.9551 127.055L81.9551 127.055L81.9551 126.911ZM80.3965 126.349L80.2978 126.455L80.298 126.455L80.3965 126.349ZM79.752 124.646L79.6075 124.646L79.6075 124.646L79.752 124.646ZM83.1602 120.884L83.2202 121.016L83.2867 120.985L83.3016 120.914L83.1602 120.884ZM85.1543 111.055L85.1193 110.915L85.0259 110.938L85.0115 111.033L85.1543 111.055ZM86.4844 110.93L86.4844 110.786L86.4844 110.786L86.4844 110.93ZM87.6484 110.972L87.6293 111.115L87.6388 111.117H87.6484V110.972ZM87.7939 110.972L87.9372 110.953L87.9204 110.828H87.7939V110.972ZM89.082 120.635L88.9388 120.654L89.0068 121.164L89.2142 120.693L89.082 120.635ZM93.2383 111.201L93.3705 111.259L93.3828 111.231V111.201H93.2383ZM93.2383 111.097L93.1868 110.962L93.0938 110.997V111.097H93.2383ZM82.8066 122.588L82.9491 122.612L82.9989 122.313L82.7355 122.463L82.8066 122.588ZM81.2275 124.292L81.0831 124.292L81.0831 124.292L81.2275 124.292ZM81.7471 124.957L81.7471 125.102L81.7472 125.102L81.7471 124.957ZM82.3291 124.396L82.1961 124.339L82.1953 124.341L82.3291 124.396ZM94.4648 110.93L94.4648 111.075C94.9847 111.075 95.4472 111.109 95.8532 111.177L95.877 111.035L95.9007 110.892C95.4759 110.821 94.9971 110.786 94.4648 110.786L94.4648 110.93ZM95.877 111.035L95.7338 111.015C95.3041 114.203 94.9651 117.093 94.7156 119.686L94.8594 119.7L95.0032 119.713C95.2523 117.125 95.5909 114.239 96.0201 111.054L95.877 111.035ZM94.8594 119.7L94.7155 119.686C94.5978 120.975 94.5061 121.958 94.4404 122.637C94.374 123.322 94.3352 123.685 94.3232 123.744L94.4648 123.773L94.6065 123.801C94.6222 123.723 94.6629 123.337 94.728 122.664C94.7938 121.985 94.8855 121.001 95.0033 119.713L94.8594 119.7ZM94.4648 123.773L94.3211 123.758C94.3069 123.9 94.2989 124.03 94.2989 124.147H94.4434H94.5878C94.5878 124.042 94.5951 123.923 94.6086 123.787L94.4648 123.773ZM94.4434 124.147L94.299 124.152C94.3067 124.352 94.3595 124.527 94.4796 124.652C94.6016 124.779 94.7709 124.831 94.9629 124.831L94.9629 124.687L94.9629 124.542C94.8225 124.542 94.7391 124.505 94.6878 124.452C94.6347 124.396 94.5939 124.301 94.5877 124.141L94.4434 124.147ZM94.9629 124.687V124.831C95.4301 124.831 95.9602 124.565 96.5461 124.082C97.1362 123.594 97.8036 122.868 98.5478 121.908L98.4336 121.82L98.3194 121.731C97.5814 122.683 96.9289 123.391 96.3621 123.859C95.791 124.331 95.3269 124.542 94.9629 124.542V124.687ZM98.4336 121.82L98.2976 121.868C98.5614 122.604 98.709 123.084 98.7481 123.318L98.8906 123.294L99.0331 123.271C98.989 123.006 98.8318 122.502 98.5696 121.771L98.4336 121.82ZM98.8906 123.294L98.7685 123.217C98.1127 124.255 97.3218 125.108 96.396 125.775L96.4805 125.892L96.5649 126.009C97.5229 125.319 98.3388 124.439 99.0128 123.371L98.8906 123.294ZM96.4805 125.892L96.3963 125.775C95.4837 126.428 94.6324 126.746 93.8408 126.746V126.89V127.034C94.7117 127.034 95.6209 126.686 96.5646 126.009L96.4805 125.892ZM93.8408 126.89L93.8408 126.746C93.0296 126.746 92.5112 126.535 92.2322 126.159L92.1162 126.245L92.0002 126.332C92.3585 126.814 92.9898 127.034 93.8408 127.034L93.8408 126.89ZM92.1162 126.245L92.2322 126.159C91.9319 125.755 91.7832 125.307 91.7831 124.812L91.6387 124.812L91.4942 124.812C91.4942 125.37 91.6634 125.878 92.0002 126.332L92.1162 126.245ZM91.6387 124.812H91.7831C91.7831 124.694 91.796 124.456 91.8237 124.095L91.6797 124.084L91.5356 124.073C91.508 124.433 91.4942 124.681 91.4942 124.812H91.6387ZM91.6797 124.084L91.8232 124.101C91.8647 123.742 92.1415 121.498 92.6541 117.37L92.5107 117.352L92.3674 117.334C91.8549 121.462 91.5778 123.707 91.5362 124.068L91.6797 124.084ZM92.5107 117.352L92.3781 117.295L88.9709 125.17L89.1035 125.227L89.2361 125.284L92.6433 117.409L92.5107 117.352ZM89.1035 125.227V125.082H87.3369V125.227V125.371H89.1035V125.227ZM87.3369 125.227L87.4802 125.208L86.4616 117.457L86.3184 117.476L86.1751 117.495L87.1937 125.246L87.3369 125.227ZM86.3184 117.476L86.1774 117.444L84.7233 123.887L84.8643 123.918L85.0052 123.95L86.4593 117.508L86.3184 117.476ZM84.8643 123.918L84.7235 123.886C84.4918 124.894 84.1139 125.618 83.6037 126.075L83.7002 126.183L83.7967 126.291C84.3669 125.779 84.7657 124.992 85.0051 123.951L84.8643 123.918ZM83.7002 126.183L83.6023 126.077C83.0991 126.54 82.5513 126.766 81.9551 126.766L81.9551 126.911L81.9551 127.055C82.633 127.055 83.2487 126.795 83.7981 126.289L83.7002 126.183ZM81.9551 126.911V126.766C81.3482 126.766 80.8657 126.588 80.4949 126.243L80.3965 126.349L80.298 126.455C80.7307 126.858 81.2875 127.055 81.9551 127.055V126.911ZM80.3965 126.349L80.4952 126.243C80.1019 125.876 79.8965 125.35 79.8964 124.646L79.752 124.646L79.6075 124.646C79.6076 125.409 79.8323 126.019 80.2978 126.455L80.3965 126.349ZM79.752 124.646H79.8964C79.8964 123.267 80.961 122.049 83.2202 121.016L83.1602 120.884L83.1001 120.753C80.8153 121.798 79.6075 123.088 79.6075 124.646H79.752ZM83.1602 120.884L83.3016 120.914C84.5338 115.002 85.1993 111.719 85.2971 111.077L85.1543 111.055L85.0115 111.033C84.9152 111.666 84.2523 114.936 83.0187 120.855L83.1602 120.884ZM85.1543 111.055L85.1893 111.195C85.5055 111.116 85.936 111.075 86.4844 111.075L86.4844 110.93L86.4844 110.786C85.9248 110.786 85.4679 110.828 85.1193 110.915L85.1543 111.055ZM86.4844 110.93V111.075C87.0531 111.075 87.4323 111.089 87.6293 111.115L87.6484 110.972L87.6675 110.829C87.449 110.8 87.0516 110.786 86.4844 110.786V110.93ZM87.6484 110.972V111.117H87.7939V110.972V110.828H87.6484V110.972ZM87.7939 110.972L87.6507 110.991L88.9388 120.654L89.082 120.635L89.2252 120.616L87.9372 110.953L87.7939 110.972ZM89.082 120.635L89.2142 120.693L93.3705 111.259L93.2383 111.201L93.1061 111.142L88.9498 120.577L89.082 120.635ZM93.2383 111.201H93.3828V111.097H93.2383H93.0938V111.201H93.2383ZM93.2383 111.097L93.2897 111.232C93.5568 111.13 93.9458 111.075 94.4648 111.075V110.93V110.786C93.9311 110.786 93.5016 110.842 93.1868 110.962L93.2383 111.097ZM82.8066 122.588L82.7355 122.463C82.2025 122.764 81.7936 123.064 81.5163 123.363C81.239 123.662 81.0831 123.973 81.0831 124.292H81.2275H81.372C81.372 124.072 81.4792 123.828 81.7282 123.559C81.9773 123.291 82.3579 123.008 82.8778 122.714L82.8066 122.588ZM81.2275 124.292L81.0831 124.292C81.0831 124.529 81.1286 124.733 81.2436 124.88C81.3639 125.034 81.5408 125.102 81.7471 125.102V124.957V124.813C81.6071 124.813 81.5243 124.77 81.4713 124.702C81.4131 124.628 81.372 124.499 81.372 124.292L81.2275 124.292ZM81.7471 124.957L81.7472 125.102C82.0764 125.102 82.3057 124.836 82.4629 124.45L82.3291 124.396L82.1953 124.341C82.0479 124.703 81.8885 124.813 81.747 124.813L81.7471 124.957ZM82.3291 124.396L82.4621 124.452C82.6621 123.981 82.8235 123.366 82.9491 122.612L82.8066 122.588L82.6641 122.565C82.5405 123.306 82.3838 123.897 82.1961 124.339L82.3291 124.396Z" fill="black" mask="url(#path-5-outside-1_64_366)"/>
<mask id="path-7-outside-2_64_366" maskUnits="userSpaceOnUse" x="0" y="148" width="149" height="49" fill="black">
<rect fill="white" y="148" width="149" height="49"/>
<path d="M44.2725 149C45.8205 149 47.2055 149.102 48.4277 149.306C47.1646 158.677 46.167 167.173 45.4336 174.792C44.7412 182.368 44.3542 186.36 44.2725 186.771C44.2317 187.178 44.2109 187.545 44.2109 187.871C44.2517 188.93 44.7614 189.46 45.7393 189.46C47.3824 189.46 49.4567 188.188 51.9648 185.648L53.9639 168.496C54.3714 167.763 55.1455 167.213 56.2861 166.847C57.427 166.439 58.5474 166.235 59.6475 166.235C60.7883 166.235 61.7869 166.378 62.6426 166.663C61.0535 178.927 60.2588 185.121 60.2588 185.243C60.0551 186.058 59.9531 186.751 59.9531 187.321C59.9531 187.851 59.9937 188.319 60.0752 188.727C60.2382 189.786 60.9717 190.315 62.2754 190.315C63.6199 190.315 64.8423 189.46 65.9424 187.749C66.0395 187.6 66.1336 187.448 66.2266 187.296C66.1777 186.845 66.1533 186.384 66.1533 185.915C66.1533 185.385 66.1741 184.856 66.2148 184.326L68.293 166.907C69.5966 166.418 70.9817 166.174 72.4482 166.174C75.1375 166.174 76.4824 167.172 76.4824 169.169C76.4819 169.254 76.1355 171.984 75.4434 177.358C74.7915 182.696 74.4659 185.792 74.4658 186.648C74.4658 188.971 75.5861 190.133 77.8271 190.133C79.7421 190.133 81.3515 189.053 82.6553 186.894C84.937 182.982 86.1394 178.561 86.2617 173.631H85.7109C83.9998 173.631 82.6961 173.243 81.7998 172.469C80.7813 171.572 80.2715 170.493 80.2715 169.229C80.2716 167.967 80.6586 166.948 81.4326 166.174C82.3698 165.359 83.4911 164.951 84.7949 164.951C87.8914 164.951 89.8264 166.561 90.6006 169.78C91.8227 169.617 92.6988 169.454 93.2285 169.291V172.774L90.9678 173.142V174.181C90.927 177.848 90.254 181.331 88.9502 184.632C87.6871 187.932 85.8541 190.642 83.4502 192.761C81.087 194.839 78.3772 195.878 75.3213 195.878C72.2654 195.878 69.9634 194.879 68.415 192.883C68.1793 192.564 67.9635 192.238 67.7646 191.905C67.4593 192.29 67.1387 192.658 66.7988 193.005C64.843 195.001 62.4995 196 59.7695 196C57.04 196 55.0028 195.328 53.6582 193.983C52.9561 193.259 52.4442 192.422 52.1201 191.474C51.5031 192.015 50.864 192.527 50.2002 193.005C47.4703 194.961 44.8832 195.938 42.4385 195.938C39.9937 195.938 38.3024 195.307 37.3652 194.044C36.4283 192.781 35.96 191.375 35.96 189.827C35.96 189.46 36.0005 188.747 36.082 187.688C36.2043 186.628 37.0199 180.027 38.5273 167.886L28.5029 191.049H23.3086L20.3135 168.252L16.0352 187.199C15.3425 190.214 14.2013 192.434 12.6123 193.86C11.064 195.286 9.35282 196 7.47852 196C5.60426 196 4.07613 195.45 2.89453 194.35C1.63149 193.168 1 191.497 1 189.338C1.00001 185.019 4.34117 181.331 11.0234 178.275C14.6498 160.877 16.6054 151.241 16.8906 149.366C17.8685 149.122 19.1729 149 20.8027 149C22.4732 149 23.6144 149.041 24.2256 149.122H24.6533L28.4424 177.542L40.666 149.794V149.488C41.5217 149.162 42.7242 149 44.2725 149ZM111.693 166.174C113.527 166.174 114.953 166.601 115.972 167.457C116.99 168.272 117.499 169.373 117.499 170.758C117.499 172.143 116.97 173.284 115.91 174.181C114.892 175.036 113.547 175.464 111.876 175.464H111.632C111.713 175.016 111.754 174.588 111.754 174.181C111.754 172.388 110.919 171.491 109.248 171.491C107.618 171.491 106.315 172.551 105.337 174.67C109.737 178.133 111.937 182.024 111.938 186.343C111.938 189.48 111.062 191.864 109.31 193.494C107.558 195.124 105.357 195.938 102.709 195.938C100.061 195.938 98.1247 195.124 96.9023 193.494C95.68 191.824 95.0684 189.725 95.0684 187.199C95.0684 186.425 95.0891 185.854 95.1299 185.487L97.2686 166.847C98.7353 166.398 100.223 166.174 101.73 166.174C104.216 166.174 105.459 167.091 105.459 168.924V169.047C107.089 167.132 109.167 166.174 111.693 166.174ZM134.925 166.174C138.673 166.174 141.79 167.376 144.275 169.78C146.802 172.184 148.065 175.118 148.065 178.581C148.065 183.837 146.517 188.054 143.42 191.232C140.364 194.37 136.657 195.938 132.297 195.938C127.937 195.938 124.473 194.696 121.906 192.211C119.38 189.725 118.117 186.649 118.117 182.981C118.117 177.848 119.686 173.773 122.823 170.758C126.001 167.702 130.035 166.174 134.925 166.174ZM133.702 171.125C131.787 171.125 130.178 172.225 128.874 174.425C127.57 176.625 126.857 179.396 126.734 182.737C126.734 185.1 127.204 187.056 128.141 188.604C129.119 190.153 130.585 190.927 132.541 190.927C134.497 190.927 136.127 189.847 137.431 187.688C138.775 185.528 139.447 183.063 139.447 180.292C139.447 177.521 138.979 175.321 138.042 173.691C137.105 171.98 135.658 171.125 133.702 171.125ZM104.298 178.947C103.566 184.8 103.199 187.754 103.197 187.81C103.197 189.521 103.89 190.377 105.275 190.377C107.068 190.377 107.965 188.93 107.965 186.037C107.965 183.674 106.742 181.31 104.298 178.947ZM9.98438 183.287C6.88778 185.039 5.33988 186.71 5.33984 188.299C5.33984 189.603 5.84871 190.255 6.86719 190.255C7.55986 190.255 8.1309 189.705 8.5791 188.604C9.14952 187.26 9.61767 185.487 9.98438 183.287ZM84.6113 168.619C84.0411 168.619 83.756 168.822 83.7559 169.229C83.7559 169.922 84.3467 170.269 85.5283 170.269H85.8945C85.6093 169.169 85.1816 168.619 84.6113 168.619ZM59.8926 149.122C61.153 149.122 62.2344 149.552 63.1367 150.411L63.4922 150.767C64.3518 151.669 64.7812 152.751 64.7812 154.012C64.7812 155.356 64.2922 156.497 63.3145 157.434C62.3774 158.371 61.237 158.84 59.8926 158.84C58.548 158.84 57.4069 158.371 56.4697 157.434C55.5327 156.497 55.0636 155.356 55.0635 154.012C55.0635 152.667 55.5326 151.526 56.4697 150.589C57.4069 149.611 58.548 149.122 59.8926 149.122Z"/>
</mask>
<path d="M44.2725 149C45.8205 149 47.2055 149.102 48.4277 149.306C47.1646 158.677 46.167 167.173 45.4336 174.792C44.7412 182.368 44.3542 186.36 44.2725 186.771C44.2317 187.178 44.2109 187.545 44.2109 187.871C44.2517 188.93 44.7614 189.46 45.7393 189.46C47.3824 189.46 49.4567 188.188 51.9648 185.648L53.9639 168.496C54.3714 167.763 55.1455 167.213 56.2861 166.847C57.427 166.439 58.5474 166.235 59.6475 166.235C60.7883 166.235 61.7869 166.378 62.6426 166.663C61.0535 178.927 60.2588 185.121 60.2588 185.243C60.0551 186.058 59.9531 186.751 59.9531 187.321C59.9531 187.851 59.9937 188.319 60.0752 188.727C60.2382 189.786 60.9717 190.315 62.2754 190.315C63.6199 190.315 64.8423 189.46 65.9424 187.749C66.0395 187.6 66.1336 187.448 66.2266 187.296C66.1777 186.845 66.1533 186.384 66.1533 185.915C66.1533 185.385 66.1741 184.856 66.2148 184.326L68.293 166.907C69.5966 166.418 70.9817 166.174 72.4482 166.174C75.1375 166.174 76.4824 167.172 76.4824 169.169C76.4819 169.254 76.1355 171.984 75.4434 177.358C74.7915 182.696 74.4659 185.792 74.4658 186.648C74.4658 188.971 75.5861 190.133 77.8271 190.133C79.7421 190.133 81.3515 189.053 82.6553 186.894C84.937 182.982 86.1394 178.561 86.2617 173.631H85.7109C83.9998 173.631 82.6961 173.243 81.7998 172.469C80.7813 171.572 80.2715 170.493 80.2715 169.229C80.2716 167.967 80.6586 166.948 81.4326 166.174C82.3698 165.359 83.4911 164.951 84.7949 164.951C87.8914 164.951 89.8264 166.561 90.6006 169.78C91.8227 169.617 92.6988 169.454 93.2285 169.291V172.774L90.9678 173.142V174.181C90.927 177.848 90.254 181.331 88.9502 184.632C87.6871 187.932 85.8541 190.642 83.4502 192.761C81.087 194.839 78.3772 195.878 75.3213 195.878C72.2654 195.878 69.9634 194.879 68.415 192.883C68.1793 192.564 67.9635 192.238 67.7646 191.905C67.4593 192.29 67.1387 192.658 66.7988 193.005C64.843 195.001 62.4995 196 59.7695 196C57.04 196 55.0028 195.328 53.6582 193.983C52.9561 193.259 52.4442 192.422 52.1201 191.474C51.5031 192.015 50.864 192.527 50.2002 193.005C47.4703 194.961 44.8832 195.938 42.4385 195.938C39.9937 195.938 38.3024 195.307 37.3652 194.044C36.4283 192.781 35.96 191.375 35.96 189.827C35.96 189.46 36.0005 188.747 36.082 187.688C36.2043 186.628 37.0199 180.027 38.5273 167.886L28.5029 191.049H23.3086L20.3135 168.252L16.0352 187.199C15.3425 190.214 14.2013 192.434 12.6123 193.86C11.064 195.286 9.35282 196 7.47852 196C5.60426 196 4.07613 195.45 2.89453 194.35C1.63149 193.168 1 191.497 1 189.338C1.00001 185.019 4.34117 181.331 11.0234 178.275C14.6498 160.877 16.6054 151.241 16.8906 149.366C17.8685 149.122 19.1729 149 20.8027 149C22.4732 149 23.6144 149.041 24.2256 149.122H24.6533L28.4424 177.542L40.666 149.794V149.488C41.5217 149.162 42.7242 149 44.2725 149ZM111.693 166.174C113.527 166.174 114.953 166.601 115.972 167.457C116.99 168.272 117.499 169.373 117.499 170.758C117.499 172.143 116.97 173.284 115.91 174.181C114.892 175.036 113.547 175.464 111.876 175.464H111.632C111.713 175.016 111.754 174.588 111.754 174.181C111.754 172.388 110.919 171.491 109.248 171.491C107.618 171.491 106.315 172.551 105.337 174.67C109.737 178.133 111.937 182.024 111.938 186.343C111.938 189.48 111.062 191.864 109.31 193.494C107.558 195.124 105.357 195.938 102.709 195.938C100.061 195.938 98.1247 195.124 96.9023 193.494C95.68 191.824 95.0684 189.725 95.0684 187.199C95.0684 186.425 95.0891 185.854 95.1299 185.487L97.2686 166.847C98.7353 166.398 100.223 166.174 101.73 166.174C104.216 166.174 105.459 167.091 105.459 168.924V169.047C107.089 167.132 109.167 166.174 111.693 166.174ZM134.925 166.174C138.673 166.174 141.79 167.376 144.275 169.78C146.802 172.184 148.065 175.118 148.065 178.581C148.065 183.837 146.517 188.054 143.42 191.232C140.364 194.37 136.657 195.938 132.297 195.938C127.937 195.938 124.473 194.696 121.906 192.211C119.38 189.725 118.117 186.649 118.117 182.981C118.117 177.848 119.686 173.773 122.823 170.758C126.001 167.702 130.035 166.174 134.925 166.174ZM133.702 171.125C131.787 171.125 130.178 172.225 128.874 174.425C127.57 176.625 126.857 179.396 126.734 182.737C126.734 185.1 127.204 187.056 128.141 188.604C129.119 190.153 130.585 190.927 132.541 190.927C134.497 190.927 136.127 189.847 137.431 187.688C138.775 185.528 139.447 183.063 139.447 180.292C139.447 177.521 138.979 175.321 138.042 173.691C137.105 171.98 135.658 171.125 133.702 171.125ZM104.298 178.947C103.566 184.8 103.199 187.754 103.197 187.81C103.197 189.521 103.89 190.377 105.275 190.377C107.068 190.377 107.965 188.93 107.965 186.037C107.965 183.674 106.742 181.31 104.298 178.947ZM9.98438 183.287C6.88778 185.039 5.33988 186.71 5.33984 188.299C5.33984 189.603 5.84871 190.255 6.86719 190.255C7.55986 190.255 8.1309 189.705 8.5791 188.604C9.14952 187.26 9.61767 185.487 9.98438 183.287ZM84.6113 168.619C84.0411 168.619 83.756 168.822 83.7559 169.229C83.7559 169.922 84.3467 170.269 85.5283 170.269H85.8945C85.6093 169.169 85.1816 168.619 84.6113 168.619ZM59.8926 149.122C61.153 149.122 62.2344 149.552 63.1367 150.411L63.4922 150.767C64.3518 151.669 64.7812 152.751 64.7812 154.012C64.7812 155.356 64.2922 156.497 63.3145 157.434C62.3774 158.371 61.237 158.84 59.8926 158.84C58.548 158.84 57.4069 158.371 56.4697 157.434C55.5327 156.497 55.0636 155.356 55.0635 154.012C55.0635 152.667 55.5326 151.526 56.4697 150.589C57.4069 149.611 58.548 149.122 59.8926 149.122Z" fill="#2E2E2E"/>
<path d="M44.2725 149L44.2725 148.575H44.2725V149ZM48.4277 149.306L48.8489 149.362L48.9039 148.954L48.4976 148.887L48.4277 149.306ZM45.4336 174.792L45.0106 174.751L45.0104 174.753L45.4336 174.792ZM44.2725 186.771L43.8557 186.687L43.8517 186.708L43.8496 186.728L44.2725 186.771ZM44.2109 187.871H43.786V187.879L43.7863 187.887L44.2109 187.871ZM45.7393 189.46L45.7393 189.885L45.7393 189.885L45.7393 189.46ZM51.9648 185.648L52.2672 185.947L52.37 185.843L52.3869 185.698L51.9648 185.648ZM53.9639 168.496L53.5925 168.29L53.5515 168.363L53.5418 168.447L53.9639 168.496ZM56.2861 166.847L56.4162 167.251L56.4291 167.247L56.2861 166.847ZM59.6475 166.235L59.6475 165.81L59.6475 165.81L59.6475 166.235ZM62.6426 166.663L63.064 166.718L63.1089 166.371L62.777 166.26L62.6426 166.663ZM60.2588 185.243L60.671 185.346L60.6837 185.295V185.243H60.2588ZM59.9531 187.321L59.5282 187.321L59.5282 187.321L59.9531 187.321ZM60.0752 188.727L60.4952 188.662L60.4937 188.653L60.4919 188.643L60.0752 188.727ZM62.2754 190.315L62.2754 190.74H62.2754V190.315ZM65.9424 187.749L65.5863 187.517L65.585 187.519L65.9424 187.749ZM66.2266 187.296L66.5893 187.517L66.6646 187.394L66.649 187.25L66.2266 187.296ZM66.1533 185.915L65.7284 185.915V185.915H66.1533ZM66.2148 184.326L65.7929 184.276L65.7919 184.285L65.7912 184.294L66.2148 184.326ZM68.293 166.907L68.1438 166.509L67.9017 166.6L67.871 166.857L68.293 166.907ZM72.4482 166.174L72.4482 165.749L72.4482 165.749L72.4482 166.174ZM76.4824 169.169L76.9073 169.171V169.169H76.4824ZM75.4434 177.358L75.0219 177.304L75.0216 177.307L75.4434 177.358ZM74.4658 186.648L74.0409 186.648V186.648H74.4658ZM77.8271 190.133L77.8271 190.558L77.8272 190.558L77.8271 190.133ZM82.6553 186.894L83.0191 187.113L83.0223 187.108L82.6553 186.894ZM86.2617 173.631L86.6865 173.641L86.6973 173.206H86.2617V173.631ZM85.7109 173.631L85.7109 174.056H85.7109V173.631ZM81.7998 172.469L81.5191 172.788L81.5221 172.79L81.7998 172.469ZM80.2715 169.229L79.8466 169.229V169.229H80.2715ZM81.4326 166.174L81.1538 165.853L81.1426 165.863L81.1321 165.873L81.4326 166.174ZM84.7949 164.951L84.7949 164.526H84.7949V164.951ZM90.6006 169.78L90.1874 169.88L90.277 170.252L90.6567 170.201L90.6006 169.78ZM93.2285 169.291H93.6534V168.716L93.1036 168.885L93.2285 169.291ZM93.2285 172.774L93.2966 173.194L93.6534 173.136V172.774H93.2285ZM90.9678 173.142L90.8997 172.722L90.5428 172.78V173.142H90.9678ZM90.9678 174.181L91.3927 174.185V174.181H90.9678ZM88.9502 184.632L88.555 184.476L88.5533 184.48L88.9502 184.632ZM83.4502 192.761L83.7308 193.08L83.7312 193.08L83.4502 192.761ZM75.3213 195.878L75.3213 196.303L75.3213 196.303L75.3213 195.878ZM68.415 192.883L68.0734 193.136L68.0793 193.143L68.415 192.883ZM67.7646 191.905L68.1293 191.687L67.8137 191.16L67.4317 191.641L67.7646 191.905ZM66.7988 193.005L67.1024 193.302L67.1024 193.302L66.7988 193.005ZM59.7695 196L59.7695 196.425H59.7695V196ZM53.6582 193.983L53.3531 194.279L53.3578 194.284L53.6582 193.983ZM52.1201 191.474L52.5222 191.336L52.317 190.736L51.8398 191.154L52.1201 191.474ZM50.2002 193.005L50.4477 193.35L50.4486 193.35L50.2002 193.005ZM42.4385 195.938L42.4385 196.363L42.4385 196.363L42.4385 195.938ZM37.3652 194.044L37.024 194.297L37.024 194.297L37.3652 194.044ZM35.96 189.827L35.535 189.827L35.535 189.827L35.96 189.827ZM36.082 187.688L35.6599 187.639L35.659 187.647L35.6584 187.655L36.082 187.688ZM38.5273 167.886L38.949 167.938L38.1374 167.717L38.5273 167.886ZM28.5029 191.049V191.474H28.782L28.8929 191.218L28.5029 191.049ZM23.3086 191.049L22.8873 191.104L22.9358 191.474H23.3086V191.049ZM20.3135 168.252L20.7348 168.197L19.899 168.158L20.3135 168.252ZM16.0352 187.199L16.4493 187.294L16.4496 187.293L16.0352 187.199ZM12.6123 193.86L12.3285 193.544L12.3244 193.548L12.6123 193.86ZM7.47852 196L7.47851 196.425H7.47852V196ZM2.89453 194.35L2.60423 194.66L2.60498 194.661L2.89453 194.35ZM1 189.338L0.575074 189.338V189.338H1ZM11.0234 178.275L11.2002 178.662L11.3956 178.572L11.4394 178.362L11.0234 178.275ZM16.8906 149.366L16.7876 148.954L16.5131 149.023L16.4705 149.302L16.8906 149.366ZM20.8027 149L20.8027 148.575H20.8027V149ZM24.2256 149.122L24.1694 149.543L24.1974 149.547H24.2256V149.122ZM24.6533 149.122L25.0745 149.066L25.0254 148.697H24.6533V149.122ZM28.4424 177.542L28.0212 177.598L28.2212 179.098L28.8312 177.713L28.4424 177.542ZM40.666 149.794L41.0549 149.965L41.0909 149.883V149.794H40.666ZM40.666 149.488L40.5148 149.091L40.2411 149.195V149.488H40.666ZM111.693 166.174L111.693 165.749H111.693V166.174ZM115.972 167.457L115.698 167.782L115.706 167.789L115.972 167.457ZM117.499 170.758L117.924 170.758L117.924 170.758L117.499 170.758ZM115.91 174.181L116.183 174.506L116.185 174.505L115.91 174.181ZM111.632 175.464L111.214 175.388L111.123 175.889H111.632V175.464ZM111.754 174.181L112.179 174.181V174.181H111.754ZM109.248 171.491L109.248 171.066L109.248 171.066L109.248 171.491ZM105.337 174.67L104.951 174.492L104.811 174.796L105.074 175.004L105.337 174.67ZM111.938 186.343L112.362 186.343L112.362 186.343L111.938 186.343ZM109.31 193.494L109.599 193.805L109.599 193.805L109.31 193.494ZM102.709 195.938L102.709 196.363L102.709 196.363L102.709 195.938ZM96.9023 193.494L96.5594 193.745L96.5624 193.749L96.9023 193.494ZM95.0684 187.199L94.6434 187.199L94.6434 187.199L95.0684 187.199ZM95.1299 185.487L94.7077 185.439L94.7076 185.44L95.1299 185.487ZM97.2686 166.847L97.1444 166.44L96.8781 166.522L96.8464 166.798L97.2686 166.847ZM101.73 166.174L101.73 165.749L101.73 165.749L101.73 166.174ZM105.459 168.924L105.884 168.924L105.884 168.924L105.459 168.924ZM105.459 169.047H105.034V170.202L105.783 169.322L105.459 169.047ZM134.925 166.174L134.925 165.749H134.925V166.174ZM144.275 169.78L143.98 170.086L143.982 170.088L144.275 169.78ZM148.065 178.581L148.49 178.581V178.581H148.065ZM143.42 191.232L143.116 190.936L143.116 190.936L143.42 191.232ZM132.297 195.938L132.297 196.363L132.297 196.363L132.297 195.938ZM121.906 192.211L121.608 192.514L121.611 192.516L121.906 192.211ZM118.117 182.981L117.692 182.981V182.981H118.117ZM122.823 170.758L123.118 171.064L123.118 171.064L122.823 170.758ZM133.702 171.125L133.702 170.7L133.702 170.7L133.702 171.125ZM128.874 174.425L128.508 174.208L128.508 174.208L128.874 174.425ZM126.734 182.737L126.31 182.722L126.309 182.73L126.309 182.737L126.734 182.737ZM128.141 188.604L127.777 188.825L127.781 188.831L128.141 188.604ZM132.541 190.927L132.541 191.352H132.541V190.927ZM137.431 187.688L137.07 187.463L137.067 187.468L137.431 187.688ZM139.447 180.292L139.872 180.292L139.872 180.292L139.447 180.292ZM138.042 173.691L137.669 173.896L137.674 173.903L138.042 173.691ZM104.298 178.947L104.593 178.642L103.982 178.051L103.876 178.895L104.298 178.947ZM103.197 187.81L102.772 187.796V187.81H103.197ZM105.275 190.377L105.275 190.802H105.275V190.377ZM107.965 186.037L108.39 186.037L108.39 186.037L107.965 186.037ZM9.98438 183.287L10.4035 183.357L10.5499 182.479L9.77513 182.917L9.98438 183.287ZM5.33984 188.299L4.91492 188.299V188.299H5.33984ZM6.86719 190.255L6.86714 190.68H6.86719V190.255ZM8.5791 188.604L8.18788 188.439L8.18558 188.444L8.5791 188.604ZM84.6113 168.619L84.6114 168.194H84.6113V168.619ZM83.7559 169.229L83.3309 169.229V169.229H83.7559ZM85.8945 170.269V170.693H86.4437L86.3059 170.162L85.8945 170.269ZM59.8926 149.122L59.8926 148.697H59.8926V149.122ZM63.1367 150.411L63.4373 150.111L63.4298 150.103L63.1367 150.411ZM63.4922 150.767L63.8 150.473L63.7927 150.466L63.4922 150.767ZM64.7812 154.012L65.2062 154.012V154.012H64.7812ZM63.3145 157.434L63.0204 157.127L63.014 157.133L63.3145 157.434ZM59.8926 158.84L59.8926 159.265L59.8926 159.265L59.8926 158.84ZM56.4697 157.434L56.1693 157.734L56.1693 157.734L56.4697 157.434ZM55.0635 154.012L54.6386 154.012L54.6386 154.012L55.0635 154.012ZM56.4697 150.589L56.7703 150.889L56.7765 150.883L56.4697 150.589ZM44.2725 149L44.2725 149.425C45.8026 149.425 47.1636 149.526 48.3579 149.725L48.4277 149.306L48.4976 148.887C47.2475 148.678 45.8384 148.575 44.2725 148.575L44.2725 149ZM48.4277 149.306L48.0066 149.249C46.743 158.624 45.7447 167.126 45.0106 174.751L45.4336 174.792L45.8566 174.833C46.5894 167.22 47.5863 158.73 48.8489 149.362L48.4277 149.306ZM45.4336 174.792L45.0104 174.753C44.6643 178.541 44.3945 181.432 44.2011 183.427C44.0058 185.442 43.8911 186.51 43.8557 186.687L44.2725 186.771L44.6892 186.854C44.7355 186.621 44.8552 185.488 45.047 183.509C45.2406 181.512 45.5105 178.619 45.8568 174.831L45.4336 174.792ZM44.2725 186.771L43.8496 186.728C43.8079 187.146 43.786 187.528 43.786 187.871H44.2109H44.6359C44.6359 187.563 44.6556 187.21 44.6953 186.813L44.2725 186.771ZM44.2109 187.871L43.7863 187.887C43.809 188.476 43.9642 188.99 44.3175 189.357C44.6762 189.73 45.1745 189.885 45.7393 189.885V189.46V189.035C45.3261 189.035 45.0806 188.925 44.9299 188.768C44.7737 188.606 44.6537 188.326 44.6355 187.855L44.2109 187.871ZM45.7393 189.46L45.7393 189.885C46.6682 189.885 47.6754 189.527 48.7496 188.869C49.8265 188.209 50.9991 187.231 52.2672 185.947L51.9648 185.648L51.6625 185.35C50.4224 186.606 49.3038 187.533 48.3058 188.144C47.305 188.757 46.4534 189.035 45.7392 189.035L45.7393 189.46ZM51.9648 185.648L52.3869 185.698L54.3859 168.545L53.9639 168.496L53.5418 168.447L51.5428 185.599L51.9648 185.648ZM53.9639 168.496L54.3353 168.703C54.6716 168.097 55.3342 167.599 56.4162 167.251L56.2861 166.847L56.1561 166.442C54.9568 166.828 54.0712 167.428 53.5925 168.29L53.9639 168.496ZM56.2861 166.847L56.4291 167.247C57.5287 166.854 58.6008 166.66 59.6475 166.66L59.6475 166.235L59.6475 165.81C58.494 165.81 57.3252 166.024 56.1432 166.447L56.2861 166.847ZM59.6475 166.235V166.66C60.7542 166.66 61.7056 166.799 62.5082 167.066L62.6426 166.663L62.777 166.26C61.8682 165.957 60.8224 165.81 59.6475 165.81V166.235ZM62.6426 166.663L62.2212 166.608C61.4266 172.741 60.8307 177.355 60.4333 180.452C60.2346 182.001 60.0856 183.17 59.9862 183.96C59.9365 184.355 59.8992 184.656 59.8742 184.862C59.8617 184.964 59.8523 185.045 59.8459 185.101C59.8416 185.139 59.8339 185.205 59.8339 185.243H60.2588H60.6837C60.6837 185.266 60.6822 185.269 60.6904 185.197C60.6964 185.143 60.7055 185.066 60.7179 184.964C60.7426 184.76 60.7797 184.461 60.8294 184.066C60.9287 183.277 61.0776 182.109 61.2763 180.56C61.6735 177.464 62.2695 172.85 63.064 166.718L62.6426 166.663ZM60.2588 185.243L59.8465 185.14C59.638 185.974 59.5282 186.704 59.5282 187.321H59.9531H60.3781C60.3781 186.798 60.4722 186.142 60.671 185.346L60.2588 185.243ZM59.9531 187.321L59.5282 187.321C59.5282 187.871 59.5703 188.369 59.6585 188.81L60.0752 188.727L60.4919 188.643C60.4172 188.27 60.3781 187.83 60.3781 187.321L59.9531 187.321ZM60.0752 188.727L59.6552 188.791C59.7506 189.411 60.023 189.919 60.4988 190.263C60.9635 190.598 61.5721 190.74 62.2754 190.74L62.2754 190.315L62.2754 189.891C61.675 189.89 61.265 189.768 60.9963 189.574C60.7387 189.388 60.5628 189.101 60.4952 188.662L60.0752 188.727ZM62.2754 190.315V190.74C63.8287 190.74 65.1641 189.745 66.2998 187.979L65.9424 187.749L65.585 187.519C64.5205 189.175 63.4112 189.891 62.2754 189.891V190.315ZM65.9424 187.749L66.2985 187.981C66.3988 187.827 66.4954 187.671 66.5893 187.517L66.2266 187.296L65.8638 187.075C65.7719 187.225 65.6801 187.373 65.5863 187.517L65.9424 187.749ZM66.2266 187.296L66.649 187.25C66.6019 186.815 66.5782 186.37 66.5782 185.915H66.1533H65.7284C65.7284 186.399 65.7535 186.875 65.8041 187.342L66.2266 187.296ZM66.1533 185.915L66.5782 185.915C66.5783 185.397 66.5986 184.878 66.6385 184.359L66.2148 184.326L65.7912 184.294C65.7496 184.834 65.7284 185.374 65.7284 185.915L66.1533 185.915ZM66.2148 184.326L66.6368 184.377L68.7149 166.958L68.293 166.907L67.871 166.857L65.7929 184.276L66.2148 184.326ZM68.293 166.907L68.4422 167.305C69.6956 166.835 71.0299 166.599 72.4483 166.599L72.4482 166.174L72.4482 165.749C70.9335 165.749 69.4976 166.002 68.1438 166.509L68.293 166.907ZM72.4482 166.174V166.599C73.7526 166.599 74.6538 166.843 75.2205 167.264C75.7635 167.667 76.0575 168.276 76.0575 169.169H76.4824H76.9073C76.9073 168.065 76.5289 167.177 75.7271 166.582C74.949 166.004 73.8331 165.749 72.4482 165.749V166.174ZM76.4824 169.169L76.0575 169.167C76.0576 169.145 76.0595 169.135 76.0557 169.171C76.0532 169.195 76.0493 169.23 76.044 169.276C76.0333 169.368 76.0171 169.501 75.9955 169.677C75.9522 170.028 75.8873 170.544 75.8007 171.227C75.6276 172.591 75.368 174.617 75.0219 177.304L75.4434 177.358L75.8648 177.413C76.2109 174.725 76.4706 172.699 76.6438 171.334C76.7304 170.651 76.7955 170.133 76.8389 169.781C76.8607 169.604 76.8771 169.469 76.8881 169.374C76.8936 169.327 76.8979 169.289 76.9009 169.26C76.9025 169.245 76.9072 169.203 76.9073 169.171L76.4824 169.169ZM75.4434 177.358L75.0216 177.307C74.3717 182.627 74.041 185.759 74.0409 186.648L74.4658 186.648L74.8907 186.648C74.8908 185.826 75.2112 182.764 75.8652 177.41L75.4434 177.358ZM74.4658 186.648H74.0409C74.0409 187.871 74.3357 188.868 75.0003 189.557C75.6676 190.248 76.6371 190.558 77.8271 190.558V190.133V189.708C76.7761 189.708 76.065 189.436 75.6119 188.967C75.1561 188.494 74.8907 187.748 74.8907 186.648H74.4658ZM77.8271 190.133L77.8272 190.558C79.9376 190.558 81.666 189.354 83.019 187.113L82.6553 186.894L82.2915 186.674C81.0369 188.752 79.5465 189.708 77.8271 189.708L77.8271 190.133ZM82.6553 186.894L83.0223 187.108C85.3433 183.129 86.5626 178.637 86.6865 173.641L86.2617 173.631L85.8369 173.62C85.7162 178.485 84.5307 182.835 82.2882 186.679L82.6553 186.894ZM86.2617 173.631V173.206H85.7109V173.631V174.056H86.2617V173.631ZM85.7109 173.631L85.711 173.206C84.0575 173.206 82.8687 172.83 82.0775 172.147L81.7998 172.469L81.5221 172.79C82.5235 173.655 83.9421 174.056 85.7109 174.056L85.7109 173.631ZM81.7998 172.469L82.0805 172.15C81.1459 171.327 80.6964 170.36 80.6964 169.229H80.2715H79.8466C79.8466 170.625 80.4167 171.818 81.5191 172.788L81.7998 172.469ZM80.2715 169.229L80.6964 169.23C80.6965 168.061 81.0512 167.156 81.7331 166.474L81.4326 166.174L81.1321 165.873C80.2661 166.739 79.8466 167.873 79.8466 169.229L80.2715 169.229ZM81.4326 166.174L81.7114 166.494C82.5672 165.75 83.588 165.376 84.7949 165.376V164.951V164.526C83.3942 164.526 82.1724 164.967 81.1538 165.853L81.4326 166.174ZM84.7949 164.951L84.7949 165.376C86.2675 165.376 87.422 165.758 88.2969 166.485C89.1748 167.216 89.815 168.331 90.1874 169.88L90.6006 169.78L91.0137 169.681C90.612 168.01 89.8977 166.712 88.8404 165.832C87.7801 164.95 86.4189 164.526 84.7949 164.526L84.7949 164.951ZM90.6006 169.78L90.6567 170.201C91.8811 170.038 92.7874 169.871 93.3534 169.697L93.2285 169.291L93.1036 168.885C92.6101 169.037 91.7642 169.196 90.5444 169.359L90.6006 169.78ZM93.2285 169.291H92.8036V172.774H93.2285H93.6534V169.291H93.2285ZM93.2285 172.774L93.1604 172.355L90.8997 172.722L90.9678 173.142L91.0359 173.561L93.2966 173.194L93.2285 172.774ZM90.9678 173.142H90.5428V174.181H90.9678H91.3927V173.142H90.9678ZM90.9678 174.181L90.5429 174.176C90.5027 177.793 89.8392 181.225 88.555 184.476L88.9502 184.632L89.3454 184.788C90.6689 181.438 91.3514 177.903 91.3927 174.185L90.9678 174.181ZM88.9502 184.632L88.5533 184.48C87.3122 187.723 85.5164 190.373 83.1692 192.442L83.4502 192.761L83.7312 193.08C86.1918 190.911 88.062 188.141 89.347 184.784L88.9502 184.632ZM83.4502 192.761L83.1696 192.442C80.8814 194.454 78.2706 195.453 75.3213 195.453L75.3213 195.878L75.3213 196.303C78.4838 196.303 81.2925 195.224 83.7308 193.08L83.4502 192.761ZM75.3213 195.878V195.453C72.3662 195.453 70.2016 194.493 68.7508 192.622L68.415 192.883L68.0793 193.143C69.7251 195.265 72.1647 196.303 75.3213 196.303V195.878ZM68.415 192.883L68.7566 192.63C68.5297 192.323 68.3216 192.009 68.1293 191.687L67.7646 191.905L67.4 192.123C67.6054 192.467 67.8289 192.805 68.0735 193.136L68.415 192.883ZM67.7646 191.905L67.4317 191.641C67.1345 192.016 66.8236 192.372 66.4953 192.708L66.7988 193.005L67.1024 193.302C67.4537 192.944 67.7841 192.565 68.0976 192.169L67.7646 191.905ZM66.7988 193.005L66.4953 192.708C64.6173 194.625 62.3823 195.575 59.7695 195.575V196V196.425C62.6167 196.425 65.0688 195.378 67.1024 193.302L66.7988 193.005ZM59.7695 196L59.7695 195.575C57.1033 195.575 55.1943 194.918 53.9586 193.683L53.6582 193.983L53.3578 194.284C54.8112 195.737 56.9766 196.425 59.7695 196.425L59.7695 196ZM53.6582 193.983L53.9633 193.688C53.3048 193.009 52.826 192.225 52.5222 191.336L52.1201 191.474L51.718 191.611C52.0623 192.619 52.6074 193.51 53.3531 194.279L53.6582 193.983ZM52.1201 191.474L51.8398 191.154C51.2325 191.687 50.6039 192.19 49.9518 192.66L50.2002 193.005L50.4486 193.35C51.124 192.863 51.7738 192.343 52.4004 191.793L52.1201 191.474ZM50.2002 193.005L49.9527 192.659C47.2686 194.582 44.7667 195.514 42.4385 195.514L42.4385 195.938L42.4385 196.363C44.9996 196.363 47.672 195.339 50.4477 193.35L50.2002 193.005ZM42.4385 195.938V195.514C40.0519 195.514 38.5269 194.896 37.7065 193.791L37.3652 194.044L37.024 194.297C38.0779 195.718 39.9356 196.363 42.4385 196.363V195.938ZM37.3652 194.044L37.7065 193.791C36.823 192.6 36.3849 191.283 36.3849 189.827L35.96 189.827L35.535 189.827C35.5351 191.468 36.0336 192.962 37.024 194.297L37.3652 194.044ZM35.96 189.827H36.3849C36.3849 189.479 36.424 188.782 36.5057 187.72L36.082 187.688L35.6584 187.655C35.577 188.712 35.535 189.442 35.535 189.827H35.96ZM36.082 187.688L36.5042 187.736C36.6262 186.679 37.4413 180.081 38.949 167.938L38.5273 167.886L38.1057 167.833C36.5984 179.973 35.7825 186.576 35.6599 187.639L36.082 187.688ZM38.5273 167.886L38.1374 167.717L28.113 190.88L28.5029 191.049L28.8929 191.218L38.9173 168.055L38.5273 167.886ZM28.5029 191.049V190.624H23.3086V191.049V191.474H28.5029V191.049ZM23.3086 191.049L23.7299 190.993L20.7348 168.197L20.3135 168.252L19.8922 168.307L22.8873 191.104L23.3086 191.049ZM20.3135 168.252L19.899 168.158L15.6207 187.106L16.0352 187.199L16.4496 187.293L20.728 168.346L20.3135 168.252ZM16.0352 187.199L15.621 187.104C14.9395 190.07 13.829 192.197 12.3285 193.544L12.6123 193.86L12.8961 194.177C14.5736 192.671 15.7454 190.358 16.4493 187.294L16.0352 187.199ZM12.6123 193.86L12.3244 193.548C10.8441 194.911 9.23271 195.575 7.47852 195.575V196V196.425C9.47292 196.425 11.2839 195.662 12.9002 194.173L12.6123 193.86ZM7.47852 196L7.47852 195.575C5.69324 195.575 4.27449 195.054 3.18408 194.039L2.89453 194.35L2.60498 194.661C3.87777 195.846 5.51528 196.425 7.47851 196.425L7.47852 196ZM2.89453 194.35L3.18483 194.039C2.02809 192.957 1.42493 191.411 1.42493 189.338H1H0.575074C0.575074 191.584 1.23489 193.379 2.60423 194.66L2.89453 194.35ZM1 189.338L1.42493 189.338C1.42493 185.282 4.55541 181.701 11.2002 178.662L11.0234 178.275L10.8467 177.889C4.12693 180.962 0.575079 184.756 0.575074 189.338L1 189.338ZM11.0234 178.275L11.4394 178.362C15.0638 160.973 17.0232 151.319 17.3107 149.43L16.8906 149.366L16.4705 149.302C16.1876 151.162 14.2358 160.781 10.6075 178.189L11.0234 178.275ZM16.8906 149.366L16.9937 149.778C17.9236 149.546 19.189 149.425 20.8027 149.425V149V148.575C19.1568 148.575 17.8134 148.698 16.7876 148.954L16.8906 149.366ZM20.8027 149L20.8027 149.425C22.4758 149.425 23.5902 149.466 24.1694 149.543L24.2256 149.122L24.2817 148.701C23.6387 148.615 22.4705 148.575 20.8027 148.575L20.8027 149ZM24.2256 149.122V149.547H24.6533V149.122V148.697H24.2256V149.122ZM24.6533 149.122L24.2321 149.178L28.0212 177.598L28.4424 177.542L28.8636 177.486L25.0745 149.066L24.6533 149.122ZM28.4424 177.542L28.8312 177.713L41.0549 149.965L40.666 149.794L40.2771 149.623L28.0535 177.371L28.4424 177.542ZM40.666 149.794H41.0909V149.488H40.666H40.2411V149.794H40.666ZM40.666 149.488L40.8173 149.885C41.6024 149.586 42.745 149.425 44.2725 149.425V149V148.575C42.7034 148.575 41.441 148.738 40.5148 149.091L40.666 149.488ZM111.693 166.174L111.693 166.599C113.464 166.599 114.781 167.012 115.698 167.782L115.972 167.457L116.245 167.132C115.125 166.191 113.589 165.749 111.693 165.749L111.693 166.174ZM115.972 167.457L115.706 167.789C116.617 168.517 117.074 169.492 117.074 170.758L117.499 170.758L117.924 170.758C117.924 169.253 117.364 168.026 116.237 167.125L115.972 167.457ZM117.499 170.758H117.074C117.074 172.018 116.6 173.04 115.636 173.856L115.91 174.181L116.185 174.505C117.339 173.528 117.924 172.268 117.924 170.758H117.499ZM115.91 174.181L115.637 173.855C114.713 174.631 113.473 175.039 111.876 175.039V175.464V175.889C113.62 175.889 115.07 175.441 116.183 174.506L115.91 174.181ZM111.876 175.464V175.039H111.632V175.464V175.889H111.876V175.464ZM111.632 175.464L112.05 175.54C112.135 175.069 112.179 174.616 112.179 174.181L111.754 174.181L111.329 174.181C111.329 174.56 111.291 174.962 111.214 175.388L111.632 175.464ZM111.754 174.181H112.179C112.179 173.226 111.957 172.431 111.438 171.874C110.914 171.312 110.157 171.066 109.248 171.066V171.491V171.916C110.01 171.916 110.505 172.119 110.817 172.453C111.133 172.793 111.329 173.343 111.329 174.181H111.754ZM109.248 171.491L109.248 171.066C107.383 171.066 105.964 172.298 104.951 174.492L105.337 174.67L105.723 174.848C106.666 172.805 107.853 171.916 109.248 171.916L109.248 171.491ZM105.337 174.67L105.074 175.004C109.405 178.412 111.512 182.191 111.513 186.343L111.938 186.343L112.362 186.343C112.362 181.857 110.069 177.854 105.6 174.336L105.337 174.67ZM111.938 186.343H111.513C111.513 189.401 110.661 191.657 109.02 193.183L109.31 193.494L109.599 193.805C111.462 192.072 112.362 189.56 112.362 186.343H111.938ZM109.31 193.494L109.02 193.183C107.356 194.732 105.262 195.513 102.709 195.514L102.709 195.938L102.709 196.363C105.452 196.363 107.76 195.516 109.599 193.805L109.31 193.494ZM102.709 195.938V195.514C100.15 195.514 98.3612 194.731 97.2423 193.239L96.9023 193.494L96.5624 193.749C97.8882 195.517 99.9708 196.363 102.709 196.363V195.938ZM96.9023 193.494L97.2453 193.243C96.0871 191.66 95.4934 189.655 95.4933 187.199L95.0684 187.199L94.6434 187.199C94.6435 189.795 95.273 191.987 96.5594 193.745L96.9023 193.494ZM95.0684 187.199H95.4933C95.4933 186.428 95.5142 185.876 95.5522 185.534L95.1299 185.487L94.7076 185.44C94.6641 185.832 94.6434 186.422 94.6434 187.199H95.0684ZM95.1299 185.487L95.552 185.536L97.6907 166.895L97.2686 166.847L96.8464 166.798L94.7077 185.439L95.1299 185.487ZM97.2686 166.847L97.3927 167.253C98.8201 166.817 100.266 166.599 101.73 166.599L101.73 166.174L101.73 165.749C100.18 165.749 98.6506 165.98 97.1444 166.44L97.2686 166.847ZM101.73 166.174V166.599C102.933 166.599 103.758 166.823 104.274 167.203C104.766 167.566 105.034 168.114 105.034 168.924L105.459 168.924L105.884 168.924C105.884 167.901 105.53 167.073 104.779 166.519C104.052 165.983 103.013 165.749 101.73 165.749V166.174ZM105.459 168.924H105.034V169.047H105.459H105.884V168.924H105.459ZM105.459 169.047L105.783 169.322C107.331 167.503 109.291 166.599 111.693 166.599V166.174V165.749C109.043 165.749 106.846 166.761 105.135 168.771L105.459 169.047ZM134.925 166.174L134.925 166.599C138.573 166.599 141.581 167.765 143.98 170.086L144.275 169.78L144.571 169.475C141.999 166.988 138.773 165.749 134.925 165.749L134.925 166.174ZM144.275 169.78L143.982 170.088C146.425 172.413 147.641 175.235 147.641 178.581H148.065H148.49C148.49 175 147.178 171.956 144.568 169.472L144.275 169.78ZM148.065 178.581L147.641 178.581C147.64 183.748 146.121 187.851 143.116 190.936L143.42 191.232L143.724 191.529C146.912 188.257 148.49 183.926 148.49 178.581L148.065 178.581ZM143.42 191.232L143.116 190.936C140.139 193.992 136.541 195.513 132.297 195.514L132.297 195.938L132.297 196.363C136.772 196.363 140.589 194.748 143.724 191.529L143.42 191.232ZM132.297 195.938V195.514C128.022 195.514 124.673 194.298 122.202 191.906L121.906 192.211L121.611 192.516C124.274 195.095 127.853 196.363 132.297 196.363V195.938ZM121.906 192.211L122.204 191.908C119.762 189.506 118.542 186.539 118.542 182.981H118.117H117.692C117.692 186.758 118.998 189.945 121.608 192.514L121.906 192.211ZM118.117 182.981L118.542 182.981C118.542 177.941 120.079 173.985 123.118 171.064L122.823 170.758L122.529 170.451C119.293 173.561 117.692 177.754 117.692 182.981L118.117 182.981ZM122.823 170.758L123.118 171.064C126.208 168.093 130.132 166.599 134.925 166.599V166.174V165.749C129.939 165.749 125.795 167.311 122.529 170.452L122.823 170.758ZM133.702 171.125L133.702 170.7C131.588 170.7 129.86 171.928 128.508 174.208L128.874 174.425L129.24 174.641C130.496 172.521 131.987 171.55 133.702 171.55L133.702 171.125ZM128.874 174.425L128.508 174.208C127.159 176.485 126.434 179.331 126.31 182.722L126.734 182.737L127.159 182.753C127.279 179.462 127.981 176.765 129.24 174.641L128.874 174.425ZM126.734 182.737L126.309 182.737C126.309 185.155 126.789 187.193 127.777 188.825L128.141 188.604L128.504 188.384C127.618 186.92 127.159 185.046 127.159 182.737L126.734 182.737ZM128.141 188.604L127.781 188.831C128.843 190.513 130.451 191.352 132.541 191.352L132.541 190.927L132.541 190.502C130.719 190.502 129.394 189.793 128.5 188.378L128.141 188.604ZM132.541 190.927V191.352C134.689 191.352 136.439 190.152 137.794 187.907L137.431 187.688L137.067 187.468C135.815 189.542 134.305 190.502 132.541 190.502V190.927ZM137.431 187.688L137.791 187.912C139.182 185.679 139.872 183.135 139.872 180.292H139.447H139.022C139.022 182.991 138.369 185.377 137.07 187.463L137.431 187.688ZM139.447 180.292L139.872 180.292C139.872 177.48 139.398 175.197 138.41 173.48L138.042 173.691L137.674 173.903C138.56 175.445 139.022 177.563 139.022 180.292L139.447 180.292ZM138.042 173.691L138.415 173.487C137.915 172.576 137.269 171.873 136.47 171.401C135.671 170.928 134.743 170.7 133.702 170.7V171.125V171.55C134.617 171.55 135.39 171.749 136.038 172.132C136.685 172.515 137.231 173.096 137.669 173.896L138.042 173.691ZM104.298 178.947L103.876 178.895C103.51 181.821 103.236 184.023 103.052 185.5C102.96 186.239 102.892 186.796 102.845 187.173C102.822 187.361 102.805 187.504 102.793 187.603C102.784 187.682 102.774 187.765 102.773 187.796L103.197 187.81L103.622 187.824C103.621 187.841 103.623 187.819 103.637 187.703C103.649 187.607 103.666 187.464 103.689 187.276C103.735 186.9 103.804 186.343 103.896 185.605C104.079 184.128 104.354 181.926 104.719 179L104.298 178.947ZM103.197 187.81H102.772C102.772 188.712 102.953 189.467 103.387 190.002C103.834 190.555 104.491 190.802 105.275 190.802L105.275 190.377L105.275 189.952C104.675 189.952 104.293 189.771 104.047 189.468C103.788 189.147 103.622 188.619 103.622 187.81H103.197ZM105.275 190.377V190.802C106.309 190.802 107.123 190.372 107.654 189.516C108.163 188.693 108.39 187.514 108.39 186.037H107.965H107.54C107.54 187.453 107.318 188.444 106.931 189.068C106.565 189.659 106.034 189.952 105.275 189.952V190.377ZM107.965 186.037L108.39 186.037C108.39 183.516 107.084 181.049 104.593 178.642L104.298 178.947L104.003 179.253C106.401 181.571 107.54 183.832 107.54 186.037L107.965 186.037ZM9.98438 183.287L9.77513 182.917C8.20759 183.804 7.00487 184.685 6.18922 185.565C5.37373 186.445 4.91494 187.359 4.91492 188.299L5.33984 188.299L5.76477 188.299C5.76479 187.65 6.07996 186.933 6.81258 186.143C7.54504 185.352 8.66457 184.522 10.1936 183.657L9.98438 183.287ZM5.33984 188.299H4.91492C4.91492 188.994 5.04866 189.594 5.38664 190.027C5.74024 190.48 6.2605 190.68 6.86714 190.68L6.86719 190.255L6.86723 189.83C6.4554 189.83 6.21199 189.703 6.05653 189.504C5.88546 189.285 5.76477 188.907 5.76477 188.299H5.33984ZM6.86719 190.255V190.68C7.83604 190.68 8.50996 189.9 8.97262 188.765L8.5791 188.604L8.18558 188.444C7.75184 189.509 7.28369 189.83 6.86719 189.83V190.255ZM8.5791 188.604L8.97028 188.77C9.55873 187.383 10.0339 185.575 10.4035 183.357L9.98438 183.287L9.56523 183.217C9.20146 185.4 8.74031 187.136 8.18792 188.439L8.5791 188.604ZM84.6113 168.619V168.194C84.2886 168.194 83.9702 168.249 83.7231 168.426C83.4494 168.621 83.3311 168.914 83.3309 169.229L83.7559 169.229L84.1808 169.23C84.1808 169.177 84.1899 169.152 84.1944 169.142C84.1978 169.135 84.2024 169.128 84.2166 169.118C84.2545 169.09 84.3638 169.044 84.6113 169.044V168.619ZM83.7559 169.229H83.3309C83.3309 169.725 83.5567 170.125 83.9841 170.375C84.3763 170.605 84.9099 170.693 85.5283 170.693V170.269V169.844C84.9651 169.844 84.6125 169.759 84.4139 169.642C84.2504 169.546 84.1808 169.427 84.1808 169.229H83.7559ZM85.5283 170.269V170.693H85.8945V170.269V169.844H85.5283V170.269ZM85.8945 170.269L86.3059 170.162C86.1568 169.587 85.9601 169.111 85.6952 168.771C85.4206 168.418 85.0567 168.194 84.6114 168.194L84.6113 168.619L84.6113 169.044C84.7362 169.044 84.8714 169.096 85.0245 169.292C85.1873 169.502 85.3471 169.85 85.4832 170.375L85.8945 170.269ZM59.8926 149.122L59.8925 149.547C61.0453 149.547 62.0214 149.936 62.8437 150.719L63.1367 150.411L63.4298 150.103C62.4474 149.168 61.2607 148.697 59.8926 148.697L59.8926 149.122ZM63.1367 150.411L62.8363 150.712L63.1917 151.067L63.4922 150.767L63.7927 150.466L63.4372 150.111L63.1367 150.411ZM63.4922 150.767L63.1845 151.06C63.9678 151.882 64.3563 152.859 64.3563 154.012H64.7812H65.2062C65.2062 152.643 64.7358 151.456 63.7999 150.474L63.4922 150.767ZM64.7812 154.012L64.3563 154.012C64.3562 155.239 63.9153 156.269 63.0204 157.127L63.3145 157.434L63.6085 157.74C64.6691 156.724 65.2061 155.473 65.2062 154.012L64.7812 154.012ZM63.3145 157.434L63.014 157.133C62.1578 157.989 61.1259 158.415 59.8925 158.415L59.8926 158.84L59.8926 159.265C61.348 159.265 62.597 158.752 63.6149 157.734L63.3145 157.434ZM59.8926 158.84V158.415C58.6589 158.415 57.6264 157.989 56.7702 157.133L56.4697 157.434L56.1693 157.734C57.1873 158.752 58.437 159.265 59.8926 159.265V158.84ZM56.4697 157.434L56.7702 157.133C55.914 156.277 55.4885 155.245 55.4884 154.012L55.0635 154.012L54.6386 154.012C54.6386 155.467 55.1514 156.716 56.1693 157.734L56.4697 157.434ZM55.0635 154.012H55.4884C55.4884 152.778 55.914 151.746 56.7702 150.889L56.4697 150.589L56.1693 150.288C55.1512 151.306 54.6386 152.556 54.6386 154.012H55.0635ZM56.4697 150.589L56.7765 150.883C57.6342 149.988 58.6648 149.547 59.8926 149.547V149.122V148.697C58.4312 148.697 57.1796 149.234 56.1629 150.295L56.4697 150.589Z" fill="black" mask="url(#path-7-outside-2_64_366)"/>
</svg>
